<svg xmlns="http://www.w3.org/2000/svg" viewBox="0 0 500 500"><g id="freepik--Floor--inject-2"><ellipse id="freepik--floor--inject-2" cx="250" cy="355.11" rx="232.07" ry="133.98" style="fill:#f5f5f5"></ellipse></g><g id="freepik--Shadows--inject-2"><path id="freepik--Shadow--inject-2" d="M179.57,420.79,93.54,371c-5.6-3.23-5.6-8.48,0-11.72l53.72-31.4c5.61-3.23,14.7-3.23,20.3,0l86,49.81c5.61,3.24,5.61,8.49,0,11.72l-53.72,31.4C194.27,424,185.18,424,179.57,420.79Z" style="fill:#e0e0e0"></path><polygon id="freepik--shadow--inject-2" points="257.15 482.93 133.91 411.78 329.77 298.7 453.01 369.86 257.15 482.93" style="fill:#e0e0e0"></polygon></g><g id="freepik--Window--inject-2"><g id="freepik--window--inject-2"><polygon points="35.52 191.17 38.25 192.79 157.94 123.69 155.22 122.06 35.52 191.17" style="fill:#fafafa"></polygon><polygon points="155.22 122.06 38.25 189.59 38.25 105.39 155.22 37.88 155.22 122.06" style="fill:#fff"></polygon><polygon points="97.55 68.42 97.55 155.82 102.7 152.85 102.7 65.45 97.55 68.42" style="fill:#f0f0f0"></polygon><polygon points="94.98 66.93 97.55 68.42 97.55 155.82 94.98 154.33 94.98 66.93" style="fill:#e0e0e0"></polygon><path d="M163.09,27.37l-130,75.05V201.7l130-75Zm-5.15,96.32L38.25,192.79v-87.4L157.94,36.28Z" style="fill:#f0f0f0"></path><polygon points="157.94 123.69 155.22 122.06 155.22 37.88 157.94 36.28 157.94 123.69" style="fill:#e0e0e0"></polygon><polygon points="163.09 27.37 160.32 25.79 30.33 100.83 33.1 102.42 163.09 27.37" style="fill:#fafafa"></polygon><polygon points="30.33 100.83 33.1 102.42 33.1 201.7 30.34 200.12 30.33 100.83" style="fill:#e0e0e0"></polygon><polygon points="97.55 71.38 102.68 68.42 102.68 71.39 97.55 74.36 97.55 71.38" style="fill:#e0e0e0"></polygon><polygon points="97.55 74.36 94.98 72.87 97.55 71.38 97.55 74.36" style="opacity:0.15"></polygon></g></g><g id="freepik--Shelves--inject-2"><g id="freepik--book-shelf--inject-2"><g id="freepik--Shelf--inject-2"><path d="M248.9,76.87V73.78h0a1.06,1.06,0,0,0-.62-.82l-18.52-10.7a3.18,3.18,0,0,0-2.85,0L173.66,93a1.06,1.06,0,0,0-.62.82h0v3.09h0a1.06,1.06,0,0,0,.62.82l18.52,10.69a3.12,3.12,0,0,0,2.85,0l53.25-30.74a1.06,1.06,0,0,0,.62-.82Z" style="fill:#f0f0f0"></path><path d="M173.66,94.65l18.52,10.7a3.18,3.18,0,0,0,2.85,0L248.28,74.6a.86.86,0,0,0,0-1.64l-18.52-10.7a3.18,3.18,0,0,0-2.85,0L173.66,93A.86.86,0,0,0,173.66,94.65Z" style="fill:#fafafa"></path><path d="M193.6,105.69v3.09a2.9,2.9,0,0,1-1.42-.35L173.66,97.74a1.06,1.06,0,0,1-.62-.82h0V93.83h0a.86.86,0,0,1,.12-.35c-.21.4,0,.86.5,1.18l18.52,10.69A2.87,2.87,0,0,0,193.6,105.69Z" style="fill:#e0e0e0"></path></g><g id="freepik--Books--inject-2"><polygon points="222.89 37.9 238.53 46.99 238.53 76.93 222.89 67.84 222.89 37.9" style="fill:#e0e0e0"></polygon><path d="M238,47.49l-15.14-8.74a6.32,6.32,0,0,1-3.47,1.9l15,8.71A15.17,15.17,0,0,0,238,47.49Z" style="fill:#fff"></path><path d="M233,49.3a3.18,3.18,0,0,0,2.91,0l2.55-1.47a.89.89,0,0,0,0-1.68l-14.92-8.61-.63.36,14.67,8.53a.53.53,0,0,1,0,1l-2.37,1.35a2,2,0,0,1-1.74,0l-14.67-8.51-.72.41Z" style="fill:#fafafa"></path><path d="M218.06,40.69V70.63L233,79.24a3.18,3.18,0,0,0,2.91,0l2.55-1.47a1,1,0,0,0,.6-.84V47a1,1,0,0,1-.6.84l-2.55,1.48a3.24,3.24,0,0,1-2.91,0Z" style="fill:#e0e0e0"></path><path d="M234.44,49.65a3,3,0,0,0,1.45-.34l2.55-1.48A1,1,0,0,0,239,47V76.93a1,1,0,0,1-.6.84l-2.55,1.47a3,3,0,0,1-1.45.35Z" style="fill:#ebebeb"></path><polygon points="216.49 41.6 232.13 50.69 232.13 80.63 216.49 71.54 216.49 41.6" style="fill:#ebebeb"></polygon><path d="M231.63,51.18l-15.14-8.74A6.39,6.39,0,0,1,213,44.35l15,8.7A15.17,15.17,0,0,0,231.63,51.18Z" style="fill:#fff"></path><path d="M226.58,53a3.24,3.24,0,0,0,2.91,0L232,51.53c.81-.47.81-1.22,0-1.68l-14.92-8.62-.63.37,14.67,8.52c.49.28.49.73,0,1l-2.37,1.35a1.91,1.91,0,0,1-1.74,0L212.38,44l-.72.41Z" style="fill:#fafafa"></path><path d="M211.66,44.38V74.32l14.92,8.62a3.24,3.24,0,0,0,2.91,0L232,81.47a1,1,0,0,0,.6-.84V50.69a1,1,0,0,1-.6.84L229.49,53a3.24,3.24,0,0,1-2.91,0Z" style="fill:#ebebeb"></path><path d="M228,53.35a3,3,0,0,0,1.45-.35L232,51.53a1,1,0,0,0,.6-.84V80.63a1,1,0,0,1-.6.84l-2.55,1.47a3,3,0,0,1-1.45.34Z" style="fill:#f0f0f0"></path><polygon points="211.29 60.93 211.29 62.45 213.6 63.63 213.6 62 211.29 60.93" style="fill:#e0e0e0"></polygon><polygon points="213.28 62.54 210.25 61.03 206.85 62.99 210.78 65.17 213.28 62.54" style="fill:#fff"></polygon><path d="M208.66,65.68V78.37a1.59,1.59,0,0,0,.72,1.26l12.12,7a1.36,1.36,0,0,0,.59.17L210.78,65.9a1.44,1.44,0,0,1-.59-.16l-.81-.47C209,65,208.66,65.22,208.66,65.68Z" style="fill:#e0e0e0"></path><path d="M211.64,65.74l1.85-2,1.65-.95c.15-.24.33-.42.23-.62L226.58,82.8v0c.1.2.13.64-.15.8l-3.49,3a1.47,1.47,0,0,1-.86.17L210.78,65.9A1.55,1.55,0,0,0,211.64,65.74Z" style="fill:#f0f0f0"></path><path d="M215.14,61.91c.4.23.3.48,0,.83l-3.5,3a1.61,1.61,0,0,1-1.45,0L207.12,64c-.4-.23-.47-.56-.16-.74a1.45,1.45,0,0,1,1.29.09l2.43,1.4a.51.51,0,0,0,.48,0l2.2-2.25a.14.14,0,0,0,0-.27l-2.46-1.27c-.4-.23-.47-.56-.16-.74a1.45,1.45,0,0,1,1.29.09Z" style="fill:#fafafa"></path><polygon points="193.24 48.92 210.81 59.13 210.81 92.76 193.24 82.55 193.24 48.92" style="fill:#e0e0e0"></polygon><path d="M210.25,59.69l-17-9.82A7.1,7.1,0,0,1,189.35,52l16.87,9.77A16.64,16.64,0,0,0,210.25,59.69Z" style="fill:#fff"></path><path d="M204.58,61.73a3.62,3.62,0,0,0,3.27,0l2.86-1.66a1,1,0,0,0,0-1.88L194,48.51l-.71.41,16.49,9.57a.6.6,0,0,1,0,1.14l-2.66,1.51a2.14,2.14,0,0,1-2,0l-16.47-9.56-.81.47Z" style="fill:#fafafa"></path><path d="M187.82,52.05V85.68l16.76,9.68a3.62,3.62,0,0,0,3.27,0l2.86-1.66a1.15,1.15,0,0,0,.68-.94V59.13a1.15,1.15,0,0,1-.68.94l-2.86,1.66a3.62,3.62,0,0,1-3.27,0Z" style="fill:#e0e0e0"></path><path d="M206.22,62.12a3.33,3.33,0,0,0,1.63-.39l2.86-1.66a1.15,1.15,0,0,0,.68-.94V92.76a1.15,1.15,0,0,1-.68.94l-2.86,1.66a3.33,3.33,0,0,1-1.63.39Z" style="fill:#f0f0f0"></path><polygon points="186.06 53.07 203.63 63.28 203.63 96.91 186.06 86.7 186.06 53.07" style="fill:#ebebeb"></polygon><path d="M203.06,63.84l-17-9.82a7.17,7.17,0,0,1-3.89,2.14L199,65.93A16.64,16.64,0,0,0,203.06,63.84Z" style="fill:#fff"></path><path d="M197.4,65.88a3.6,3.6,0,0,0,3.26,0l2.87-1.66a1,1,0,0,0,0-1.88l-16.76-9.68-.71.41,16.48,9.57a.6.6,0,0,1,0,1.14l-2.66,1.51a2.12,2.12,0,0,1-2,0l-16.48-9.56-.8.47Z" style="fill:#fafafa"></path><path d="M180.64,56.2V89.83l16.76,9.68a3.6,3.6,0,0,0,3.26,0l2.87-1.66a1.14,1.14,0,0,0,.67-.94V63.28a1.14,1.14,0,0,1-.67.94l-2.87,1.66a3.6,3.6,0,0,1-3.26,0Z" style="fill:#ebebeb"></path><path d="M199,66.27a3.33,3.33,0,0,0,1.63-.39l2.87-1.66a1.14,1.14,0,0,0,.67-.94V96.91a1.14,1.14,0,0,1-.67.94l-2.87,1.66a3.33,3.33,0,0,1-1.63.39Z" style="fill:#f5f5f5"></path></g></g><g id="freepik--book-shelf--inject-2"><g id="freepik--shelf--inject-2"><path d="M319.27,76.87V73.78h0a1.06,1.06,0,0,1,.62-.82l18.52-10.7a3.18,3.18,0,0,1,2.85,0L394.51,93a1.06,1.06,0,0,1,.62.82h0v3.09h0a1.06,1.06,0,0,1-.62.82L376,108.43a3.12,3.12,0,0,1-2.85,0L319.89,77.69a1.06,1.06,0,0,1-.62-.82Z" style="fill:#f0f0f0"></path><path d="M394.51,94.65,376,105.35a3.18,3.18,0,0,1-2.85,0L319.89,74.6a.86.86,0,0,1,0-1.64l18.52-10.7a3.18,3.18,0,0,1,2.85,0L394.51,93A.86.86,0,0,1,394.51,94.65Z" style="fill:#fafafa"></path><path d="M374.57,105.69v3.09a2.9,2.9,0,0,0,1.42-.35l18.52-10.69a1,1,0,0,0,.62-.82h0V93.83h0a.86.86,0,0,0-.12-.35c.21.4.05.86-.5,1.18L376,105.35A2.87,2.87,0,0,1,374.57,105.69Z" style="fill:#e0e0e0"></path></g><g id="freepik--books--inject-2"><polygon points="345.28 37.9 329.64 46.99 329.64 76.93 345.28 67.84 345.28 37.9" style="fill:#e0e0e0"></polygon><path d="M330.14,47.49l15.14-8.74a6.32,6.32,0,0,0,3.47,1.9l-15,8.71A15.17,15.17,0,0,1,330.14,47.49Z" style="fill:#fff"></path><path d="M335.19,49.3a3.18,3.18,0,0,1-2.91,0l-2.55-1.47a.89.89,0,0,1,0-1.68l14.92-8.61.63.36-14.67,8.53a.53.53,0,0,0,0,1L333,48.79a2,2,0,0,0,1.74,0l14.67-8.51.72.41Z" style="fill:#fafafa"></path><path d="M350.11,40.69V70.63l-14.92,8.61a3.18,3.18,0,0,1-2.91,0l-2.55-1.47a1,1,0,0,1-.6-.84V47a1,1,0,0,0,.6.84l2.55,1.48a3.24,3.24,0,0,0,2.91,0Z" style="fill:#e0e0e0"></path><path d="M333.73,49.65a3,3,0,0,1-1.45-.34l-2.55-1.48a1,1,0,0,1-.6-.84V76.93a1,1,0,0,0,.6.84l2.55,1.47a3,3,0,0,0,1.45.35Z" style="fill:#ebebeb"></path><polygon points="351.68 41.6 336.04 50.69 336.04 80.63 351.68 71.54 351.68 41.6" style="fill:#ebebeb"></polygon><path d="M336.54,51.18l15.14-8.74a6.39,6.39,0,0,0,3.46,1.91l-15,8.7A15.17,15.17,0,0,1,336.54,51.18Z" style="fill:#fff"></path><path d="M341.59,53a3.24,3.24,0,0,1-2.91,0l-2.55-1.47c-.81-.47-.81-1.22,0-1.68l14.92-8.62.63.37L337,50.12c-.49.28-.49.73,0,1l2.37,1.35a1.91,1.91,0,0,0,1.74,0L355.79,44l.72.41Z" style="fill:#fafafa"></path><path d="M356.51,44.38V74.32l-14.92,8.62a3.24,3.24,0,0,1-2.91,0l-2.55-1.47a1,1,0,0,1-.6-.84V50.69a1,1,0,0,0,.6.84L338.68,53a3.24,3.24,0,0,0,2.91,0Z" style="fill:#ebebeb"></path><path d="M340.13,53.35a3,3,0,0,1-1.45-.35l-2.55-1.47a1,1,0,0,1-.6-.84V80.63a1,1,0,0,0,.6.84l2.55,1.47a3,3,0,0,0,1.45.34Z" style="fill:#f0f0f0"></path><polygon points="356.88 60.93 356.88 62.45 354.57 63.63 354.57 62 356.88 60.93" style="fill:#e0e0e0"></polygon><polygon points="354.89 62.54 357.93 61.03 361.32 62.99 357.39 65.17 354.89 62.54" style="fill:#fff"></polygon><path d="M359.51,65.68V78.37a1.59,1.59,0,0,1-.72,1.26l-12.12,7a1.36,1.36,0,0,1-.59.17L357.39,65.9a1.44,1.44,0,0,0,.59-.16l.81-.47C359.19,65,359.51,65.22,359.51,65.68Z" style="fill:#e0e0e0"></path><path d="M356.53,65.74l-1.85-2L353,62.74c-.15-.24-.33-.42-.23-.62L341.59,82.8v0c-.1.2-.13.64.15.8l3.49,3a1.47,1.47,0,0,0,.86.17L357.39,65.9A1.55,1.55,0,0,1,356.53,65.74Z" style="fill:#f0f0f0"></path><path d="M353,61.91c-.4.23-.3.48,0,.83l3.5,3a1.61,1.61,0,0,0,1.45,0L361.05,64c.4-.23.47-.56.16-.74a1.45,1.45,0,0,0-1.29.09l-2.43,1.4a.51.51,0,0,1-.48,0l-2.2-2.25a.14.14,0,0,1,0-.27l2.46-1.27c.4-.23.47-.56.16-.74a1.45,1.45,0,0,0-1.29.09Z" style="fill:#fafafa"></path><polygon points="374.93 48.92 357.36 59.13 357.36 92.76 374.93 82.55 374.93 48.92" style="fill:#e0e0e0"></polygon><path d="M357.92,59.69l17-9.82A7.1,7.1,0,0,0,378.82,52L362,61.78A16.64,16.64,0,0,1,357.92,59.69Z" style="fill:#fff"></path><path d="M363.59,61.73a3.62,3.62,0,0,1-3.27,0l-2.86-1.66a1,1,0,0,1,0-1.88l16.76-9.68.71.41-16.49,9.57a.6.6,0,0,0,0,1.14l2.66,1.51a2.14,2.14,0,0,0,2,0l16.47-9.56.81.47Z" style="fill:#fafafa"></path><path d="M380.35,52.05V85.68l-16.76,9.68a3.62,3.62,0,0,1-3.27,0l-2.86-1.66a1.15,1.15,0,0,1-.68-.94V59.13a1.15,1.15,0,0,0,.68.94l2.86,1.66a3.62,3.62,0,0,0,3.27,0Z" style="fill:#e0e0e0"></path><path d="M362,62.12a3.33,3.33,0,0,1-1.63-.39l-2.86-1.66a1.15,1.15,0,0,1-.68-.94V92.76a1.15,1.15,0,0,0,.68.94l2.86,1.66a3.33,3.33,0,0,0,1.63.39Z" style="fill:#f0f0f0"></path><polygon points="382.11 53.07 364.54 63.28 364.54 96.91 382.11 86.7 382.11 53.07" style="fill:#ebebeb"></polygon><path d="M365.11,63.84l17-9.82A7.17,7.17,0,0,0,386,56.16l-16.86,9.77A16.64,16.64,0,0,1,365.11,63.84Z" style="fill:#fff"></path><path d="M370.77,65.88a3.6,3.6,0,0,1-3.26,0l-2.87-1.66a1,1,0,0,1,0-1.88l16.76-9.68.71.41-16.48,9.57a.6.6,0,0,0,0,1.14l2.66,1.51a2.12,2.12,0,0,0,2,0l16.48-9.56.8.47Z" style="fill:#fafafa"></path><path d="M387.53,56.2V89.83l-16.76,9.68a3.6,3.6,0,0,1-3.26,0l-2.87-1.66a1.14,1.14,0,0,1-.67-.94V63.28a1.14,1.14,0,0,0,.67.94l2.87,1.66a3.6,3.6,0,0,0,3.26,0Z" style="fill:#ebebeb"></path><path d="M369.14,66.27a3.33,3.33,0,0,1-1.63-.39l-2.87-1.66a1.14,1.14,0,0,1-.67-.94V96.91a1.14,1.14,0,0,0,.67.94l2.87,1.66a3.33,3.33,0,0,0,1.63.39Z" style="fill:#f5f5f5"></path></g></g></g><g id="freepik--Clock--inject-2"><g id="freepik--clock--inject-2"><path d="M423.39,48.68h0l0,0h0L428,46h0l0,0h0c2.86-1.45,6.68-1,10.79,1.63C447,53,453.35,65.22,452.87,75c-.23,4.89-2.11,8.25-5,9.73h0l0,0h0l-4.54,2.63h0l0,0h0c-2.86,1.46-6.68,1-10.8-1.62-8.26-5.32-14.57-17.58-14.09-27.4C418.66,53.51,420.54,50.16,423.39,48.68Z" style="fill:#ebebeb"></path><path d="M443.55,87.3l4.33-2.52h0l0,0c2.85-1.48,4.73-4.84,5-9.72a30.56,30.56,0,0,0-3-13.76l-4.54,2.63a30.43,30.43,0,0,1,3,13.76C448.1,82.45,446.3,85.77,443.55,87.3Z" style="fill:#e0e0e0"></path><path d="M432.51,85.8c-8.26-5.32-14.57-17.58-14.09-27.4S426,45,434.24,50.27s14.57,17.58,14.09,27.4S440.77,91.12,432.51,85.8Z" style="fill:#f0f0f0"></path><path d="M439.43,85.12c4.87.24,5.67-5.24,5.78-7.6.42-8.66-5.38-19.93-12.66-24.63A11.13,11.13,0,0,0,427.32,51c-4.87-.23-5.66,5.24-5.78,7.61-.42,8.65,5.38,19.93,12.66,24.62a11.17,11.17,0,0,0,5.23,1.94Z" style="fill:#fff"></path><path d="M432.42,69.66a.47.47,0,0,0,.17,0,.53.53,0,0,0,.36-.5V56.61a.53.53,0,0,0-1.06,0v11l-5.84-7.5a.53.53,0,0,0-.74-.09.54.54,0,0,0-.1.75L432,69.45A.51.51,0,0,0,432.42,69.66Z" style="fill:#e0e0e0"></path><path d="M435.41,78.91h.07a.24.24,0,0,0,.16-.28l-2.94-9.9a.22.22,0,0,0-.28-.15.21.21,0,0,0-.15.27l2.94,9.91A.24.24,0,0,0,435.41,78.91Z" style="fill:#ebebeb"></path><path d="M432.59,66.62c-1-.62-1.81-.19-1.86,1a4,4,0,0,0,1.66,3.22c1,.63,1.8.2,1.86-1A4,4,0,0,0,432.59,66.62Z" style="fill:#ebebeb"></path></g></g><g id="freepik--Diploma--inject-2"><g id="freepik--diploma--inject-2"><g id="freepik--window--inject-2"><polygon points="455.01 152.45 453.52 153.31 416.27 131.8 417.76 130.94 455.01 152.45" style="fill:#f0f0f0"></polygon><polygon points="417.76 130.94 453.52 151.59 453.52 120.59 417.76 99.94 417.76 130.94" style="fill:#fafafa"></polygon><path d="M414.78,132.66,455,155.89V119.73L414.78,96.5Zm1.49-33.58,37.25,21.51v32.72L416.27,131.8Z" style="fill:#ebebeb"></path><polygon points="416.27 131.8 417.76 130.94 417.76 99.94 416.27 99.08 416.27 131.8" style="fill:#e0e0e0"></polygon><polygon points="414.78 96.5 416.27 95.64 456.5 118.87 455.01 119.73 414.78 96.5" style="fill:#f5f5f5"></polygon><polygon points="456.5 118.87 455.01 119.73 455.01 155.89 456.5 155.03 456.5 118.87" style="fill:#e0e0e0"></polygon></g><path d="M446.5,137.77a5.55,5.55,0,0,1,2.52,4.35c0,1.61-1.13,2.26-2.52,1.45a5.54,5.54,0,0,1-2.51-4.35C444,137.61,445.11,137,446.5,137.77Z" style="fill:#e0e0e0"></path><path d="M426.18,107.75l18.94,10.92a2.13,2.13,0,0,1,.95,1.65v.06c0,.6-.43.85-.95.55L426.18,110a2.09,2.09,0,0,1-1-1.65v-.06C425.22,107.69,425.65,107.44,426.18,107.75Z" style="fill:#e0e0e0"></path><path d="M423.18,112.9l24.93,14.39a1.94,1.94,0,0,1,.95,1.41c0,.48-.43.62-.95.32l-24.95-14.41a1.84,1.84,0,0,1-.94-1.4C422.22,112.73,422.65,112.6,423.18,112.9Z" style="fill:#f0f0f0"></path><path d="M423.18,116.34l24.93,14.39a1.94,1.94,0,0,1,.95,1.41c0,.48-.43.62-.95.31l-24.95-14.4a1.84,1.84,0,0,1-.94-1.41C422.22,116.17,422.65,116,423.18,116.34Z" style="fill:#f0f0f0"></path><path d="M423.18,119.78l24.93,14.39a1.92,1.92,0,0,1,.95,1.41c0,.48-.43.61-.95.31l-24.95-14.4a1.87,1.87,0,0,1-.94-1.41C422.22,119.61,422.65,119.47,423.18,119.78Z" style="fill:#f0f0f0"></path><path d="M442,140a2.79,2.79,0,0,1-.62-.56,1.72,1.72,0,0,1-.47-1.45c0-.16-.23-.69-.35-.61a9.38,9.38,0,0,1-1.08.44c-.21.1-.62.42-1.13-.28a1.62,1.62,0,0,1-.29-.89,1.24,1.24,0,0,0,.34-1.17c0-.18-.29-.7-.38-.58a2,2,0,0,0-.32,1.06,1.9,1.9,0,0,1-.81.27,2.09,2.09,0,0,1-.52.1.23.23,0,0,1-.2,0,.49.49,0,0,1-.18-.4.68.68,0,0,1,.08-.41h0s0,0,0,0v0c0-.17-.21-.66-.3-.56a1.55,1.55,0,0,1-1.46.75l-.1,0c0-.11,0-.23,0-.34a4.42,4.42,0,0,0-.11-.82c0-.15-.24-.54-.34-.51-.52.15-.95.57-1.66.38a2.75,2.75,0,0,1-.34-.16c-.12-.2.06-.6.08-.66a3.14,3.14,0,0,1,.25-.52,1.08,1.08,0,0,0,.2-.43c0-.17-.32-.89-.39-.69a4.65,4.65,0,0,1-.23.46,3.4,3.4,0,0,1-1.4.75,2.17,2.17,0,0,1-1.94-.37,2.51,2.51,0,0,1-.88-.9,2.13,2.13,0,0,1-.23-1,3.59,3.59,0,0,1,.23-1.45,7.58,7.58,0,0,0,2.16,1c.6.16,1.25.33,1.64.07.22-.14.35-.64-.18-1.49a3.19,3.19,0,0,0-1.17-1.07,3,3,0,0,0-1.19-.45,1.46,1.46,0,0,0-1.48,1,4,4,0,0,0-.17.39A11.84,11.84,0,0,1,424.3,126c-.05-.06-.07,0,0,.1A13.33,13.33,0,0,0,427,129a3.72,3.72,0,0,0,.59,3.38c1,1.48,2.15,1.53,2.67,1.43a2.21,2.21,0,0,0,1-.48s.06,0,.09,0a1.72,1.72,0,0,0,.57,1.41,1,1,0,0,0,1.18.24,6,6,0,0,0,.71-.26,2.24,2.24,0,0,0,.53,1.47c.4.38.76.07,1,0a1.74,1.74,0,0,0,.47-.24,1.52,1.52,0,0,0,.09.25c.35.78.76.85,1,.82a3.9,3.9,0,0,0,1-.21,3.33,3.33,0,0,0,.42.94c.53.87,1,1,1.34,1a2.29,2.29,0,0,0,1-.46,2.75,2.75,0,0,0,.37.94,3.61,3.61,0,0,0,1.25,1.37C442.36,140.61,442.2,140.07,442,140Zm-11.67-11.39c.25.16.77.55.79,1,0,.27-.2.31-.33.34a2.88,2.88,0,0,1-1.45-.13,7.24,7.24,0,0,1-1.82-.71C428,128,428.88,127.61,430.36,128.57Z" style="fill:#e0e0e0"></path></g></g><g id="freepik--Plants--inject-2"><g id="freepik--plants--inject-2"><path d="M102.51,363.05c.92-13,1.37-25-4.17-43.92-4.65-15.86-18-32.35-27.64-32.24-9,.1-11.62,11-4.13,21.26s24,30,24.29,43.59l2.55,15.55Z" style="fill:#4597C6"></path><path d="M102.51,363.05c.92-13,1.37-25-4.17-43.92-4.65-15.86-18-32.35-27.64-32.24-9,.1-11.62,11-4.13,21.26s24,30,24.29,43.59l2.55,15.55Z" style="fill:#fff;opacity:0.4"></path><path d="M98.34,358.19a.57.57,0,0,1-.41-.56c.47-30-17-55.14-28.72-62.53a.58.58,0,0,1,.61-1c12,7.53,29.72,33.5,29.26,63.52a.58.58,0,0,1-.58.57Z" style="fill:#fff"></path><path d="M90,369c-1.51-4.27-4-12.91-11.27-20.69-8-8.6-19.34-14.24-21-19.92-2-6.84,4.15-10.07,13.82-7.41,11.62,3.19,23.89,17.41,24.49,45Z" style="fill:#4597C6"></path><g style="opacity:0.25"><path d="M90,369c-1.51-4.27-4-12.91-11.27-20.69-8-8.6-19.34-14.24-21-19.92-2-6.84,4.15-10.07,13.82-7.41,11.62,3.19,23.89,17.41,24.49,45Z" style="fill:#fff"></path></g><path d="M92.87,364.83a.56.56,0,0,1-.4-.48c-3.11-24.29-18.56-36-26.29-38.75a.58.58,0,0,1,.39-1.09c8.55,3.08,23.87,14.9,27,39.7a.57.57,0,0,1-.49.64A.52.52,0,0,1,92.87,364.83Z" style="fill:#fff"></path></g></g><g id="freepik--Character--inject-2"><g id="freepik--character--inject-2"><g id="freepik--Chair--inject-2"><path d="M243.53,381l-10.21-85.15-8.34-.43L239.33,381h0a1.12,1.12,0,0,0,.55.75,3.31,3.31,0,0,0,3,.15,1,1,0,0,0,.66-.89Z" style="fill:#263238"></path><path d="M233.32,295.82l-8.34-.43,2.46,16.15a31.71,31.71,0,0,0,4.93-2.27,5.06,5.06,0,0,0,2.21-1.89Z" style="fill:#263238"></path><path d="M122.51,283.33h-8.35L102,363.74h0a1,1,0,0,0,.61.92,3.3,3.3,0,0,0,3,0,1.16,1.16,0,0,0,.6-.72h0Z" style="fill:#37474f"></path><path d="M114.16,283.33l-3.39,22.44a32.91,32.91,0,0,0,6.41,3.92l5.33-26.36Z" style="fill:#263238"></path><path d="M187.74,409.52l-7.85-86.59-8.34-.42,12,87h0a1.14,1.14,0,0,0,.55.74,3.25,3.25,0,0,0,3,.15,1,1,0,0,0,.66-.88Z" style="fill:#37474f"></path><path d="M180.91,335.39l-1-12.46-8.34-.42L173.24,336C175.1,336.52,178.49,336.18,180.91,335.39Z" style="fill:#263238"></path><path d="M168.08,256.83h-8.35l-12.15,80.41h0a1,1,0,0,0,.61.92,3.3,3.3,0,0,0,3,0,1.16,1.16,0,0,0,.6-.72h0Z" style="fill:#263238"></path><g id="freepik--chair--inject-2"><path d="M98.64,186a47,47,0,0,0-3.34,14.66c-1,11.24,2.69,52.78,5,69.05h0c3.31,27.19,7.36,27.23,13.25,31.79,10.14,7.82,39.28,23.17,48.9,27,17.45,6.86,31.71-3.72,42.34-9a246.71,246.71,0,0,0,28.16-16.68c2.66-1.94,4-3.89,4-5.95,0-.81,0-4.16,0-5,0-2.62-2.32-5.44-7.2-8.6-9-5.85-41.57-24.84-54.19-31.83a.12.12,0,0,0-.1-.1c-9.71-5.89-15.39-51.1-22.11-72.42-.15-.45-.29-.9-.44-1.32s-.24-.67-.35-1c-.42-1.16-.86-2.22-1.32-3.19" style="fill:#4597C6"></path><path d="M236.93,291.78c0-2.62-2.32-5.44-7.2-8.6-9-5.85-41.57-24.84-54.19-31.83a.12.12,0,0,0-.1-.1c-9.71-5.89-15.39-51.1-22.11-72.42-.07-.2-.54-1.84-1.41-3.92l-.12-.28c-.13-.29-.25-.58-.39-.87-.06-.14-.12-.3-.19-.43h0a20.25,20.25,0,0,0-4.49-6.48,9.51,9.51,0,0,0-2.2-1.55c-1.09-.62-3.38-1.89-4-2.23-6.6-3.94-15.25.79-26,6.7-6.7,3.67-12.42,8-15.9,16.18h0a47,47,0,0,0-3.34,14.66c-1,11.24,2.69,52.78,5,69.05h0c3.31,27.19,7.36,27.23,13.25,31.79,10.14,7.82,39.28,23.17,48.9,27,17.45,6.86,31.71-3.72,42.34-9a246.71,246.71,0,0,0,28.16-16.68c2.66-1.94,4-3.89,4-5.95C236.91,296,236.93,292.64,236.93,291.78Z" style="fill:#4597C6"></path><path d="M236.93,291.78c0-2.62-2.32-5.44-7.2-8.6-9-5.85-41.57-24.84-54.19-31.83a.12.12,0,0,0-.1-.1c-9.71-5.89-15.39-51.1-22.11-72.42-.07-.2-.54-1.84-1.41-3.92l-.12-.28c-.13-.29-.25-.58-.39-.87-.06-.14-.12-.3-.19-.43h0a20.25,20.25,0,0,0-4.49-6.48,9.51,9.51,0,0,0-2.2-1.55c-1.09-.62-3.38-1.89-4-2.23-6.6-3.94-15.25.79-26,6.7-6.7,3.67-12.42,8-15.9,16.18h0a47,47,0,0,0-3.34,14.66c-1,11.24,2.69,52.78,5,69.05h0c3.31,27.19,7.36,27.23,13.25,31.79,10.14,7.82,39.28,23.17,48.9,27,17.45,6.86,31.71-3.72,42.34-9a246.71,246.71,0,0,0,28.16-16.68c2.66-1.94,4-3.89,4-5.95C236.91,296,236.93,292.64,236.93,291.78Z" style="fill:#fff;opacity:0.25"></path><path d="M204.75,314.37a247.61,247.61,0,0,0,28.16-16.68c6.05-4.39,5.49-8.89-3.18-14.51-12-7.81-61.11-35.66-61.11-35.66s-62.05,36.62-59.38,43.38,41.07,27.68,53.17,32.44C179.86,330.2,194.12,319.62,204.75,314.37Z" style="fill:#4597C6"></path><path d="M204.75,314.37a247.61,247.61,0,0,0,28.16-16.68c6.05-4.39,5.49-8.89-3.18-14.51-12-7.81-61.11-35.66-61.11-35.66s-62.05,36.62-59.38,43.38,41.07,27.68,53.17,32.44C179.86,330.2,194.12,319.62,204.75,314.37Z" style="fill:#fff;opacity:0.6000000000000001"></path><path d="M144.52,165.3c-6.53-3.43-15,1.23-25.51,7-6.73,3.68-12.46,8.05-15.94,16.22L98.64,186c3.48-8.14,9.2-12.51,15.9-16.18,10.78-5.91,19.43-10.64,26-6.7C141.14,163.41,143.43,164.68,144.52,165.3Z" style="fill:#4597C6"></path><path d="M144.52,165.3c-6.53-3.43-15,1.23-25.51,7-6.73,3.68-12.46,8.05-15.94,16.22L98.64,186c3.48-8.14,9.2-12.51,15.9-16.18,10.78-5.91,19.43-10.64,26-6.7C141.14,163.41,143.43,164.68,144.52,165.3Z" style="fill:#fff;opacity:0.5"></path><path d="M153.33,178.83c-.15-.45-2.39-8.27-6.61-12a10.59,10.59,0,0,0-7.14-2.72c-5.7,0-12.55,3.77-20.57,8.16-.67.37-1.34.74-2,1.13l-.74.44-.89.56a6.64,6.64,0,0,0-.65.43,35.5,35.5,0,0,0-4,3.07,7.76,7.76,0,0,0-.61.55,27.18,27.18,0,0,0-2.29,2.38,5.58,5.58,0,0,0-.39.46c-.15.18-.31.37-.45.56s-.3.39-.45.59l-.42.59a27.29,27.29,0,0,0-1.61,2.57l-.19.34c-.13.24-.25.48-.37.73s-.35.72-.52,1.08a46.09,46.09,0,0,0-3.64,15.36c-1.56,18.46,4.6,84.62,10.95,89.88,0,0-1-6,11.79-14,8.68-5.46,14.77-10.05,24-14.59,22.57-11.09,28.9-13.17,28.9-13.17C165.73,245.36,160.05,200.15,153.33,178.83Z" style="fill:#4597C6"></path><path d="M153.33,178.83c-.15-.45-2.39-8.27-6.61-12a10.59,10.59,0,0,0-7.14-2.72c-5.7,0-12.55,3.77-20.57,8.16-.67.37-1.34.74-2,1.13l-.74.44-.89.56a6.64,6.64,0,0,0-.65.43,35.5,35.5,0,0,0-4,3.07,7.76,7.76,0,0,0-.61.55,27.18,27.18,0,0,0-2.29,2.38,5.58,5.58,0,0,0-.39.46c-.15.18-.31.37-.45.56s-.3.39-.45.59l-.42.59a27.29,27.29,0,0,0-1.61,2.57l-.19.34c-.13.24-.25.48-.37.73s-.35.72-.52,1.08a46.09,46.09,0,0,0-3.64,15.36c-1.56,18.46,4.6,84.62,10.95,89.88,0,0-1-6,11.79-14,8.68-5.46,14.77-10.05,24-14.59,22.57-11.09,28.9-13.17,28.9-13.17C165.73,245.36,160.05,200.15,153.33,178.83Z" style="fill:#fff;opacity:0.4"></path></g></g><path id="freepik--shadow--inject-2" d="M236.91,296.8c0,2.05-1.34,4-4,5.94a243.21,243.21,0,0,1-28.16,16.68c-5.53,2.74-12,6.91-19.46,9.31C167.48,318.3,136.72,300,129.16,294c-4-3.23-6.48-8.64-7.93-14.16a74,74,0,0,1-2.14-18.7,25.44,25.44,0,0,1-11-7.3c-4.46-4.92-5.65-20.92-7.42-57.26v0a39.74,39.74,0,0,1,2.73-8.77c.18-.37.34-.72.52-1.08s.25-.49.39-.73.12-.22.18-.34a29.45,29.45,0,0,1,1.6-2.57l.43-.6c.16-.19.29-.39.44-.58l.46-.56c.12-.16.25-.31.38-.46a28.88,28.88,0,0,1,2.31-2.38c.19-.2.39-.37.59-.56a38.73,38.73,0,0,1,4-3.06c.22-.16.43-.3.65-.43s.58-.38.89-.55.49-.31.74-.45c.65-.38,1.31-.77,2-1.13,8-4.39,14.88-8.16,20.59-8.16a10.76,10.76,0,0,1,6.7,2.34,5.2,5.2,0,0,1,.43.37,18.26,18.26,0,0,1,3.64,4.82c.14.26.29.53.42.79,0,.06.06.13.09.18.12.23.23.46.34.69l.13.27.07.16.19.45c.24.51.45,1,.62,1.47.05.11.09.22.13.32.15.38.27.72.38,1,0,.1.07.2.1.28a2.47,2.47,0,0,0,.1.29c0,.08,0,.16.07.23s.06.16.08.23.07.2.09.28l.06.19a3.1,3.1,0,0,1,.09.31c6.73,21.32,12.41,66.53,22.12,72.42a.13.13,0,0,1,.1.11c12.62,7,45.18,26,54.19,31.82,4.88,3.16,7.18,6,7.19,8.61C236.92,292.65,236.9,296,236.91,296.8Z" style="opacity:0.1"></path><g id="freepik--character--inject-2"><path d="M223,367.78l-.88,29.2s-1.38,7.56-9.3,8.79-8.54-8.62-8.54-8.62l-4.43-34.61Z" style="fill:#f28f8f"></path><path d="M201.5,412.06a9.41,9.41,0,0,0,.41,3.37c.54,1.37,4.07,3.22,6,4.26a11.26,11.26,0,0,1,6,6.25A22.5,22.5,0,0,0,224,436.74a32.21,32.21,0,0,0,19,2.62c8-1.16,8.82-5.83,8.82-5.83s.57-4.4-1.39-5.17S201.5,412.06,201.5,412.06Z" style="fill:#263238"></path><path d="M204,395c-.62.08-.72.75-.91,2.77s-1.07,4.54-1.39,6.47c-.43,2.57-.84,5.81-.26,8.4,2.09,3.92,6.76,3.49,11,7.7,3.89,3.85,7.49,12.74,17.85,15.17s18.38-.61,20.41-3.51.37-5.76-6.19-9.6c-7-4.08-15.91-15.82-15.91-15.82-1.08-1.59-2.16-3.16-3.15-4.85a12.42,12.42,0,0,1-1.05-2.9c-.32-1.12-.63-2.25-.95-3.38-.14-.51-.35-1.1-.85-1.29a1.8,1.8,0,0,0-1.34.26,39.31,39.31,0,0,1-9.64,3.21,1.72,1.72,0,0,0-1,.46,2,2,0,0,0-.14,1.58,7.67,7.67,0,0,1,0,2.14c0,.31-.18.7-.49.73s-.53-.28-.66-.56c-.46-.9-.91-1.81-1.37-2.72a4.39,4.39,0,0,0-2.2-2.09,10.28,10.28,0,0,1-1.58-1Z" style="fill:#455a64"></path><path d="M223.6,432.79s.11-7.31,8.11-11.06,12.69-1,15,.83c2.79,2.16,6.74,6.6,4.15,9.65-2.81,3.28-7.17,4.74-15.2,4.56S223.6,432.79,223.6,432.79Z" style="fill:#fafafa"></path><path d="M213.66,408a.93.93,0,0,0,.73-.34c.94-1.22,6.82-5.67,12.29-3.94.31-.63-.13-1.31-1.24-2-5.79-.72-11.38,3.47-12.51,4.93a.84.84,0,0,0,.2,1.21A.88.88,0,0,0,213.66,408Z" style="fill:#fafafa"></path><path d="M229.71,408a2.73,2.73,0,0,0-1.5-2c-5.52-.31-10.7,3.6-11.78,5a.84.84,0,0,0,.19,1.21.89.89,0,0,0,.54.17.92.92,0,0,0,.73-.35C218.8,410.9,224.38,406.68,229.71,408Z" style="fill:#fafafa"></path><path d="M238.08,417.27a5,5,0,0,0-2.39-2.41c-5.7-.58-11.16,3.52-12.27,5a.84.84,0,0,0,.19,1.21,1,1,0,0,0,.54.17.9.9,0,0,0,.72-.35C225.86,419.57,232.36,414.68,238.08,417.27Z" style="fill:#fafafa"></path><path d="M220.65,416.81a.92.92,0,0,0,.73-.35c.93-1.2,6.69-5.55,12.11-4a3.08,3.08,0,0,0-1.79-2.05c-5.52-.31-10.69,3.6-11.78,5a.84.84,0,0,0,.2,1.21A.88.88,0,0,0,220.65,416.81Z" style="fill:#fafafa"></path><path d="M264,345l.54,29.2s-1,7.63-8.86,9.23-8.9-8.3-8.9-8.3l-6.59-31Z" style="fill:#f28f8f"></path><path d="M244.7,390.22a9.41,9.41,0,0,0,.58,3.35c.6,1.34,4.21,3,6.19,4a11.31,11.31,0,0,1,6.29,6,22.51,22.51,0,0,0,10.57,10.29,32.24,32.24,0,0,0,19.08,1.71c7.94-1.55,8.52-6.25,8.52-6.25s.36-4.43-1.63-5.1S244.7,390.22,244.7,390.22Z" style="fill:#263238"></path><path d="M246.32,373.05c-.61.1-.66.8-.75,2.82s-.85,4.58-1.08,6.53c-.3,2.58-.56,5.84.15,8.41,2.27,3.81,6.93,3.16,11.37,7.15,4.07,3.66,8.1,12.36,18.56,14.28s18.34-1.5,20.23-4.49.08-5.78-6.66-9.29c-7.15-3.74-16.66-15-16.66-15-1.15-1.53-2.31-3.06-3.38-4.69a12.2,12.2,0,0,1-1.19-2.84l-1.11-3.34c-.17-.5-.41-1.08-.92-1.24a1.75,1.75,0,0,0-1.31.32,39.46,39.46,0,0,1-9.48,3.67,1.81,1.81,0,0,0-1,.51,2,2,0,0,0-.06,1.59,7.62,7.62,0,0,1,.13,2.13c0,.32-.14.71-.45.76s-.54-.25-.69-.52l-1.5-2.65a4.3,4.3,0,0,0-2.3-2,10.46,10.46,0,0,1-1.63-1Z" style="fill:#455a64"></path><path d="M267.78,409.85s-.25-7.3,7.57-11.44,12.62-1.61,15.06.09c2.89,2,7,6.28,4.61,9.44-2.64,3.42-6.93,5.09-14.95,5.29S267.78,409.85,267.78,409.85Z" style="fill:#fafafa"></path><path d="M256.66,385.61a.92.92,0,0,0,.7-.39c.88-1.25,6.54-6,12.09-4.53.28-.64-.2-1.29-1.34-2-5.82-.44-11.19,4-12.25,5.53a.84.84,0,0,0,.25,1.2A.92.92,0,0,0,256.66,385.61Z" style="fill:#fafafa"></path><path d="M272.68,384.81a2.7,2.7,0,0,0-1.59-1.9c-5.53,0-10.51,4.11-11.53,5.57a.85.85,0,0,0,.25,1.2,1,1,0,0,0,.55.14.93.93,0,0,0,.71-.38C261.92,388.22,267.29,383.73,272.68,384.81Z" style="fill:#fafafa"></path><path d="M281.49,393.64a5.1,5.1,0,0,0-2.51-2.29c-5.72-.29-11,4.06-12,5.56a.83.83,0,0,0,.25,1.19.92.92,0,0,0,.55.15,1,1,0,0,0,.71-.39C269.4,396.54,275.66,391.34,281.49,393.64Z" style="fill:#fafafa"></path><path d="M264.06,394a.88.88,0,0,0,.71-.38c.87-1.24,6.42-5.88,11.9-4.57a3.08,3.08,0,0,0-1.88-2c-5.53,0-10.51,4.12-11.52,5.57a.84.84,0,0,0,.25,1.2A.9.9,0,0,0,264.06,394Z" style="fill:#fafafa"></path><path d="M259.47,285.82c-3.24-9.5-34.17-25.28-44.63-31.55s-16.3-10.16-28.22-18.54l-25.3-18.27c-2.08,10.65-2.81,16.84.51,27.39L127.2,257.6c1.48,13.86,5,20.89,8.78,25.22,5.65,6.52,10.79,10.54,26.2,19.52,12.75,7.43,25.77,16,29.27,18.27,4,2.58,4.9,5.05,4.27,10.39-2.46,21.17,3.54,44.12,5.89,61.37,0,0,10,5.26,21.92-1.66,0,0,4.85-77.24,1.61-86.74a18.7,18.7,0,0,0-3.25-5c1.83.79,3.23,1.4,4,1.78,4.74,2.38,5.58,4.09,6.14,12.15.81,11.73,2.22,18.69,5.43,32.83,1.71,7.54,5.72,25.63,5.72,25.63,4.87,2.51,18.73,1.14,23.43-3.41C266.59,368,262.7,295.32,259.47,285.82Z" style="fill:#4597C6"></path><path d="M259.47,285.82c-3.24-9.5-34.17-25.28-44.63-31.55s-16.3-10.16-28.22-18.54l-25.3-18.27c-2.08,10.65-2.81,16.84.51,27.39L127.2,257.6c1.48,13.86,5,20.89,8.78,25.22,5.65,6.52,10.79,10.54,26.2,19.52,12.75,7.43,25.77,16,29.27,18.27,4,2.58,4.9,5.05,4.27,10.39-2.46,21.17,3.54,44.12,5.89,61.37,0,0,10,5.26,21.92-1.66,0,0,4.85-77.24,1.61-86.74a18.7,18.7,0,0,0-3.25-5c1.83.79,3.23,1.4,4,1.78,4.74,2.38,5.58,4.09,6.14,12.15.81,11.73,2.22,18.69,5.43,32.83,1.71,7.54,5.72,25.63,5.72,25.63,4.87,2.51,18.73,1.14,23.43-3.41C266.59,368,262.7,295.32,259.47,285.82Z" style="opacity:0.30000000000000004"></path><path d="M225.87,300.75c4.74,2.38,5.58,4.09,6.14,12.15a145.63,145.63,0,0,0,3.76,25c-.63-3.05-1.49-18.21-1.66-20.09-.8-8.7-.25-14.5-1.32-17.37s-12-8.74-12-8.74l-26.86-23.56c5.09-5.68,3.88-15,3.88-15-1.46,11.6-9.4,15.33-9.4,15.33a362.2,362.2,0,0,1,33.75,30.63C223.84,299.81,225.15,300.39,225.87,300.75Z" style="opacity:0.2"></path><g id="freepik--Top--inject-2"><path d="M211.75,170.54c-4.62-10.82-8.25-13.66-19.3-15.44l-2.34,32s12.85,31.34,16.24,37.52l21.05-11.14S215.83,180.09,211.75,170.54Z" style="fill:#455a64"></path><path d="M238.38,197.52c11.28-6,14.51-7.64,16.06-10.22s1.57-5.36,3-9.71a30.55,30.55,0,0,0,1.6-11.53c-.29-2.37,2.44-1.73,4.29,1.38s.81,4.62,1,7.42,1.47,2.65,3.36,1.2,10.93-8.81,14.05-10.83,5-1.2,5.55.16c.32.77-1.34,2-5.33,5.42s-8.09,6.09-7.85,6.38,4.26-2.76,8.75-5.63c4.12-2.65,6.48-3.89,8.53-3.41,2.33.54,2.22,2.35,1.48,2.79a103.68,103.68,0,0,0-9.72,6.2,43.2,43.2,0,0,0-5.2,4c.11.46,3.42-1.58,7.88-3.41,4-1.67,6.34-2.31,8.34-.87.41.29.92,1,.71,1.42-.48.87-3.77,2-5.78,2.92-2.9,1.36-3.18,1.38-5.33,2.52-1.47.79-3.37,1.84-3.28,2.12s7.21-2,9.56-1.69c2,.3,3.3,1.62,1.36,2.64S279,192.38,275,194.44s-8.45,4.9-12.26,7.21-20.41,11.43-20.41,11.43Z" style="fill:#f28f8f"></path><path d="M265.57,180c1.48,3.54-1.38,8.43-4.25,11C265.55,188.8,268.39,185,265.57,180Z" style="fill:#b16668"></path><path d="M248.93,191.46,217.73,208l-11.38,16.6c3.56,8.59,10.75,9.89,16.89,6.74s34.54-22.09,34.54-22.09C257.09,200.76,248.93,191.46,248.93,191.46Z" style="fill:#455a64"></path><path d="M224.22,204.52c-6.59,2.79-11.87,9.5-13,15.41,0-8.5,5.3-15.35,11.78-18.91Z" style="fill:#37474f"></path><path d="M166.5,152.06a155.1,155.1,0,0,0-24.73,2.61c-4.38.93-8.46,7.29-11.26,15.45-5.09,14.82-9,55.79-3.31,91.76,16.73,5.6,67.86-5.21,72.15-17.36,0,0-5.52-5.53-2.65-31.44,1.1-9.92,4.2-27.58,4.72-36.22.69-11.45-4.33-18.79-9-21.76C188.52,153.65,177.51,151.84,166.5,152.06Z" style="fill:#37474f"></path><path d="M208.44,99.38a4.49,4.49,0,0,0-4.43-3A8.13,8.13,0,0,0,206.48,90a11.43,11.43,0,0,0-.77-4.77A6.86,6.86,0,0,1,202.8,87a16.73,16.73,0,0,1-5.34,1,28.52,28.52,0,0,1-8-1c-2.92-.72-9.5-3.13-18.1-2-9.22,1.24-12.07,4.29-14.49,7.28a13.27,13.27,0,0,0-2.68,8.3c-6.05,2.89-7.51,11.57-3.78,20.66a58.82,58.82,0,0,0,6,11.58c2.22,3.77,3.76,6.34,3.76,6.34l.72-7.74.12-4.69c18.67,4.35,33.26-5.8,35.17-14.67a6.7,6.7,0,0,0,4.54.55,4.83,4.83,0,0,0,3.74-2.75,5.15,5.15,0,0,0,.09-3.86C207.59,105.27,209.64,102.5,208.44,99.38Z" style="fill:#263238"></path><path d="M161.42,123c-1.67.22-2.5-2.71-3.87-4.32a5.22,5.22,0,0,0-8.67,1.36c-2.72,5,.09,10,4.06,12.24,2.42,1.36,5.18,1,6.3-.26l-.94,21.55-3.81.5c1.35,2.17,6.94,10.35,21.72,9.46,9.38-.56,7.76-7,7.7-9.45l-2.75-.42.39-4.82a31.76,31.76,0,0,0,9,.88c5.36-.22,7.46-4,9.2-9.05,2.8-8.12,2.38-16.65,2.32-27.12,0-3.17-.73-7.87-2.07-10.26-.78,1.43-2.42,4.5-11.37,5.83-7.39,1.09-18.2-1.31-21.19-2.44.86,3.5-.29,9.63-2.24,12.63C164.58,120.22,162.84,123,161.42,123Z" style="fill:#f28f8f"></path><path d="M181.55,148.8s-10.67-2.81-14.26-5a12.19,12.19,0,0,1-4.82-5.37,16.79,16.79,0,0,0,2.55,6.15c2.51,3.62,16.31,7,16.31,7Z" style="fill:#b16668"></path><path d="M182.64,134.45a5.1,5.1,0,0,0-3.17,2.22,1.43,1.43,0,0,0-.16.52c-.05.69.55,1,1.12,1.11a26.58,26.58,0,0,1,4.7,1.28,12.41,12.41,0,0,0,1.66.55,1.08,1.08,0,0,0,.9-.11,1.38,1.38,0,0,0,.39-.91,5.11,5.11,0,0,0-.75-3.16C186.58,134.7,184.31,134.06,182.64,134.45Z" style="fill:#b16668"></path><path d="M181.67,134.79a21.85,21.85,0,0,0,4.93.41,5.27,5.27,0,0,0-4-.75A5.66,5.66,0,0,0,181.67,134.79Z" style="fill:#fff"></path><path d="M185.13,139.58l.08,0a5.13,5.13,0,0,0-5-3.91,3.1,3.1,0,0,0-.79,1,1.43,1.43,0,0,0-.16.52c-.05.69.55,1,1.12,1.11A26.58,26.58,0,0,1,185.13,139.58Z" style="fill:#ffa8a7"></path><path d="M180.43,138.3a26.58,26.58,0,0,1,4.7,1.28,12.21,12.21,0,0,0,1.55.51c-1.76-1.68-4.32-2.57-7.37-2.91h0C179.26,137.88,179.86,138.19,180.43,138.3Z" style="fill:#fff"></path><path d="M175.91,120.79a2.56,2.56,0,0,0,2,2.9,2.39,2.39,0,0,0,2.84-1.94,2.55,2.55,0,0,0-2-2.9A2.4,2.4,0,0,0,175.91,120.79Z" style="fill:#263238"></path><path d="M182.6,115.25l-5.92-1c-.28,1.23.82,2.46,2.46,2.74S182.33,116.48,182.6,115.25Z" style="fill:#263238"></path><path d="M193.94,121.47a2.54,2.54,0,0,0,2,2.89,2.38,2.38,0,0,0,2.84-1.94,2.54,2.54,0,0,0-2-2.89A2.38,2.38,0,0,0,193.94,121.47Z" style="fill:#263238"></path><path d="M200.07,113.74l-5.93-1c-.24,1.34,1,2.58,2.6,2.82S199.79,115,200.07,113.74Z" style="fill:#263238"></path><polygon points="186.32 116.88 187.19 132.16 195.47 129.83 186.32 116.88" style="fill:#b16668"></polygon><path d="M185.53,114.81a1.74,1.74,0,0,0-.59-1s-.07,0-.1,0a.39.39,0,0,0,.06.18,2.55,2.55,0,0,1,.25,1.08,2.21,2.21,0,0,1-.63,1.47,3.66,3.66,0,0,1-.81.66,4.9,4.9,0,0,1-1,.42s0,.08,0,.08a3.2,3.2,0,0,0,2.25-.88,2.17,2.17,0,0,0,.61-1.52A3.47,3.47,0,0,0,185.53,114.81Z" style="fill:#b16668"></path><path d="M142.55,154.51c-12.25,1.78-18.17,5.41-21.71,14.14s-9.42,32.87-11.68,44-2.67,21.31-1,24.31L131,227.43l9.85-34.93S150.78,165.69,142.55,154.51Z" style="fill:#455a64"></path><path d="M133,210.44c-2,2.78-4.25,3.89-9.23,6.27-4.64,2.22-10,4.33-12.78,9.41.77-4.69,3.32-7,9.09-10.33s14.25-7.24,14.25-7.24Z" style="fill:#37474f"></path><path d="M133,210.44c-2,2.78-4.25,3.89-9.23,6.27-4.64,2.22-10,4.33-12.78,9.41-2.44,4.47-4.1,9.77-2.45,11.64s6.69,3.36,12.86,2.9,10.3-5.6,16.49-10.07c5.3-3.83,8.07-6.27,8.07-6.27Z" style="fill:#455a64"></path><path d="M141.31,214.62c-2.31-2.05-2.85-4.24-6.2-5.88s-5.38-1.45-8.93-3-6.39-2.27-8.93-1.26-2,2.47,0,3.58,5.48,2.51,7.91,4.06,4.76,2.38,5,5.32a130.62,130.62,0,0,1-.16,14c-.33,5-1.06,9-.65,9.54s2.53.63,3.66-2.21,2.2-13,2.2-13,1.39,6.91,2.08,11.69,1.08,8.44,1.27,9.46,3.56,0,3.88-3.64S141.32,229,141.32,229l5.15,7.77c2,3.06,4.54,7.24,5.35,8.26s2.85-1,2.15-3.85-4.84-9.68-4.84-9.68,4.76,4.39,5.57,4.8,3.16-.11,2.15-3.24c-.68-2.09-2.12-3.36-6-7.24s-3.91-5.58-5.14-7.39C144.13,216,143,216.11,141.31,214.62Z" style="fill:#f28f8f"></path><path d="M132.52,216.85c3.66,1.35,7.06-.47,7.49-1.38C139.93,217.94,135.12,219.68,132.52,216.85Z" style="fill:#b16668"></path><path d="M157.06,234.86a1.62,1.62,0,0,1-2.25,0c-.95-.7-3.32-3.05-4.4-4.13s-4.79-5-4.79-5l3.51,5.71s4.76,4.39,5.57,4.8A1.75,1.75,0,0,0,157.06,234.86Z" style="fill:#b16668"></path></g></g></g><g id="freepik--Bolt--inject-2"><polygon points="243.48 125.29 230.59 129.33 228.5 125.54 222.63 130.4 221.16 126.87 213.13 131.26 222.79 120.21 224.3 124.19 230.8 116.88 233.52 122.24 239.84 115.91 243.48 125.29" style="fill:#4597C6"></polygon><polygon points="243.48 125.29 230.59 129.33 228.5 125.54 222.63 130.4 221.16 126.87 213.13 131.26 222.79 120.21 224.3 124.19 230.8 116.88 233.52 122.24 239.84 115.91 243.48 125.29" style="fill:#fff;opacity:0.30000000000000004"></polygon><polygon points="221.84 142.2 221.79 137.55 212.96 135.11 225.6 134.06 225.91 137.8 235.67 137.07 234.16 144.56 221.84 142.2" style="fill:#4597C6"></polygon><polygon points="221.84 142.2 221.79 137.55 212.96 135.11 225.6 134.06 225.91 137.8 235.67 137.07 234.16 144.56 221.84 142.2" style="fill:#fff;opacity:0.30000000000000004"></polygon><polygon points="222.6 116.78 217.99 116.16 211.32 127.62 214.48 111.85 218.72 112.28 220.88 102.91 227.9 106.8 222.6 116.78" style="fill:#4597C6"></polygon><polygon points="222.6 116.78 217.99 116.16 211.32 127.62 214.48 111.85 218.72 112.28 220.88 102.91 227.9 106.8 222.6 116.78" style="fill:#fff;opacity:0.30000000000000004"></polygon></g></g><g id="freepik--Desk--inject-2"><g id="freepik--desk--inject-2"><polygon points="256.41 358.85 256.41 469.93 253.13 468.04 253.13 356.95 256.41 358.85" style="fill:#4597C6"></polygon><polygon points="256.41 358.85 256.41 469.93 253.13 468.04 253.13 356.95 256.41 358.85" style="opacity:0.4"></polygon><polygon points="256.41 358.85 256.41 469.93 259.69 468.04 259.69 356.95 256.41 358.85" style="fill:#4597C6"></polygon><polygon points="256.41 358.85 256.41 469.93 259.69 468.04 259.69 356.95 256.41 358.85" style="opacity:0.25"></polygon><polygon points="155.12 300.37 155.12 411.45 151.83 409.56 151.83 298.47 155.12 300.37" style="fill:#4597C6"></polygon><polygon points="155.12 300.37 155.12 411.45 151.83 409.56 151.83 298.47 155.12 300.37" style="opacity:0.4"></polygon><polygon points="155.12 300.37 155.12 411.45 158.4 409.56 158.4 298.47 155.12 300.37" style="fill:#4597C6"></polygon><polygon points="155.12 300.37 155.12 411.45 158.4 409.56 158.4 298.47 155.12 300.37" style="opacity:0.25"></polygon><polygon points="425.28 261.35 425.28 372.43 422 370.54 422 259.45 425.28 261.35" style="fill:#4597C6"></polygon><polygon points="425.28 261.35 425.28 372.43 428.56 370.54 428.56 259.45 425.28 261.35" style="fill:#4597C6"></polygon><polygon points="256.41 341.31 256.41 364.69 151.84 304.32 151.83 280.93 256.41 341.31" style="fill:#4597C6"></polygon><polygon points="256.41 341.31 256.41 364.69 151.84 304.32 151.83 280.93 256.41 341.31" style="opacity:0.4"></polygon><polygon points="256.41 364.69 428.56 265.3 428.56 253.61 256.41 353 256.41 364.69" style="fill:#4597C6"></polygon><polygon points="256.41 364.69 428.56 265.3 428.56 253.61 256.41 353 256.41 364.69" style="opacity:0.25"></polygon><g id="freepik--desk--inject-2"><polygon points="256.41 353 141.71 286.78 323.99 181.54 438.69 247.76 256.41 353" style="fill:#4597C6"></polygon><polygon points="256.41 353 141.71 286.78 323.99 181.54 438.69 247.76 256.41 353" style="fill:#fff;opacity:0.6000000000000001"></polygon><polygon points="141.71 286.78 141.71 292.62 256.41 358.85 256.41 353 141.71 286.78" style="fill:#4597C6"></polygon><polygon points="141.71 286.78 141.71 292.62 256.41 358.85 256.41 353 141.71 286.78" style="fill:#fff;opacity:0.25"></polygon><polygon points="256.41 358.85 438.69 253.61 438.69 247.76 256.41 353 256.41 358.85" style="fill:#4597C6"></polygon><polygon points="256.41 358.85 438.69 253.61 438.69 247.76 256.41 353 256.41 358.85" style="fill:#fff;opacity:0.4"></polygon></g></g><g id="freepik--Laptop--inject-2"><path id="freepik--shadow--inject-2" d="M359.71,278.94,321.36,256.8a2.23,2.23,0,0,0-2.21,0l-66.53,38.42a.49.49,0,0,0,0,.85l38.71,22.35Z" style="opacity:0.1"></path><path d="M356.85,274.28v.86a3.57,3.57,0,0,1-1.77,3.07L293.1,314a3.5,3.5,0,0,1-1.77.47,3.67,3.67,0,0,1-1.78-.47l-33.78-19.45a3.54,3.54,0,0,1-1.77-3.07v-1.19h0a.44.44,0,0,0,.22.39l37.1,21.43Z" style="fill:#37474f"></path><path d="M291.33,312.1v2.36a3.61,3.61,0,0,0,1.77-.47l62-35.78a3.57,3.57,0,0,0,1.77-3.07v-.87Z" style="fill:#263238"></path><path d="M356.85,274.27,320.1,253.06a2.1,2.1,0,0,0-2.11,0l-63.75,36.81a.46.46,0,0,0,0,.81l37.09,21.42Z" style="fill:#455a64"></path><polygon points="290.99 308.98 271.17 297.55 329.13 264.09 349.05 275.46 290.99 308.98" style="fill:#37474f"></polygon><polygon points="349.05 275.46 348.29 275.9 329.13 264.96 271.93 297.99 271.17 297.55 329.13 264.09 349.05 275.46" style="fill:#263238"></polygon><polygon points="281.25 277.18 281.62 277.39 291.33 283 308.61 273.03 308.97 272.82 298.89 267 281.25 277.18" style="fill:#263238"></polygon><polygon points="281.62 277.39 291.33 283 308.61 273.03 298.89 267.42 281.62 277.39" style="fill:#37474f"></polygon><path d="M292.33,312.63a4.23,4.23,0,0,0,3.62-.28l61.7-35.63a4.19,4.19,0,0,0,2-2.93l6.76-40.29a4,4,0,0,0,.05-.69,4.18,4.18,0,0,0-1.24-3l-64.12,37a3.12,3.12,0,0,0-1.51,2.17Z" style="fill:#37474f"></path><path d="M291.33,312.1l.42.25.58.28,7.3-43.6a3.12,3.12,0,0,1,1.51-2.17l64.12-37a3.91,3.91,0,0,0-.85-.65l-64.26,37.09a3.15,3.15,0,0,0-1.51,2.17Z" style="fill:#455a64"></path><path d="M300.23,267.68l-1-.58a3.3,3.3,0,0,0-.59,1.34l-7.31,43.66.42.25.58.28,7.3-43.6A3.12,3.12,0,0,1,300.23,267.68Z" style="fill:#263238"></path><path d="M327.08,275.44c.45-2.7,3.24-6.28,6.22-8s5-.93,4.58,1.77-3.23,6.28-6.22,8S326.63,278.13,327.08,275.44Z" style="fill:#4597C6"></path></g><g id="freepik--Lamp--inject-2"><path id="freepik--shadow--inject-2" d="M352.11,203.63c6.84,3.79,6.84,9.93,0,13.72s-17.95,3.79-24.79,0-6.85-9.93,0-13.72S345.26,199.84,352.11,203.63Z" style="opacity:0.1"></path><path d="M353.6,208.72a5.07,5.07,0,0,0-.11-1.16A17.44,17.44,0,0,0,346.4,197H331.58a17.4,17.4,0,0,0-7.09,10.57,5,5,0,0,0-.12,1.16,1.8,1.8,0,0,0,0,.2c.14,2.05,1.55,4.08,4.26,5.64,5.71,3.3,15,3.3,20.68,0,2.71-1.56,4.12-3.59,4.25-5.64A1.8,1.8,0,0,0,353.6,208.72Z" style="fill:#4597C6"></path><g style="opacity:0.15"><path d="M353.6,208.72a5.07,5.07,0,0,0-.11-1.16A17.44,17.44,0,0,0,346.4,197H331.58a17.4,17.4,0,0,0-7.09,10.57,5,5,0,0,0-.12,1.16,1.8,1.8,0,0,0,0,.2c.14,2.05,1.55,4.08,4.26,5.64,5.71,3.3,15,3.3,20.68,0,2.71-1.56,4.12-3.59,4.25-5.64A1.8,1.8,0,0,0,353.6,208.72Z"></path></g><path d="M332,196.75c-3.88,2.24-3.88,5.87,0,8.11a15.55,15.55,0,0,0,14.06,0c3.88-2.24,3.88-5.87,0-8.11A15.55,15.55,0,0,0,332,196.75Z" style="fill:#4597C6"></path><path d="M341.36,201a3.1,3.1,0,0,0,.44-.6l14.45-32.09L351.71,166l-15.27,33.59h0c-.41.84-.42,1.4.48,1.92a4.34,4.34,0,0,0,3.91,0,2,2,0,0,0,.46-.37h0Z" style="fill:#4597C6"></path><path d="M341.36,201a3.1,3.1,0,0,0,.44-.6l14.45-32.09L351.71,166l-15.27,33.59h0c-.41.84-.42,1.4.48,1.92a4.34,4.34,0,0,0,3.91,0,2,2,0,0,0,.46-.37h0Z" style="opacity:0.5"></path><path d="M353.46,159.66v0a2.26,2.26,0,0,0-2.3.8,7.33,7.33,0,0,0-1.7,6.43,2.44,2.44,0,0,0,1.32,1.74v0l5.09,1.91,2.53-9.06Z" style="fill:#4597C6"></path><g style="opacity:0.15"><path d="M353.46,159.66v0a2.26,2.26,0,0,0-2.3.8,7.33,7.33,0,0,0-1.7,6.43,2.44,2.44,0,0,0,1.32,1.74v0l5.09,1.91,2.53-9.06Z"></path></g><path d="M356.16,162.36a7.34,7.34,0,0,0-1.69,6.43c.56,2.05,2.22,2.49,3.71,1a7.34,7.34,0,0,0,1.7-6.44C359.32,161.29,357.66,160.85,356.16,162.36Z" style="fill:#4597C6"></path><path d="M331.17,132.54a3.77,3.77,0,0,0-2.69,2.1,1.15,1.15,0,0,0,.1,1.26h0l22.77,27.37h0a1.26,1.26,0,0,0,1.1.27,3.78,3.78,0,0,0,2.7-2.1,1.14,1.14,0,0,0-.11-1.27h0l-22.73-27.34h0A1.18,1.18,0,0,0,331.17,132.54Z" style="fill:#4597C6"></path><g style="opacity:0.5"><path d="M331.17,132.54a3.77,3.77,0,0,0-2.69,2.1,1.15,1.15,0,0,0,.1,1.26h0l22.77,27.37h0a1.26,1.26,0,0,0,1.1.27,3.78,3.78,0,0,0,2.7-2.1,1.14,1.14,0,0,0-.11-1.27h0l-22.73-27.34h0A1.18,1.18,0,0,0,331.17,132.54Z"></path></g><path d="M334.44,132.65c1.27-1.6.16-4.51-1.3-6.18s-4.19-3.18-5.94-2.14-7.16,5.52-7.16,5.52l8.2,9.43S333.17,134.24,334.44,132.65Z" style="fill:#4597C6"></path><path d="M334.44,132.65c1.27-1.6.16-4.51-1.3-6.18s-4.19-3.18-5.94-2.14-7.16,5.52-7.16,5.52l8.2,9.43S333.17,134.24,334.44,132.65Z" style="opacity:0.25"></path><path d="M330.42,124.45c1.85,2.14.67,8.15-4.77,11.85l2.59,3s4.93-5,6.2-6.63.16-4.51-1.3-6.18A7.9,7.9,0,0,0,330.42,124.45Z" style="opacity:0.15"></path><path d="M318.38,162.54c5.41-4.71,14.22-22.58,7.9-29.84s-25.23-1-30.64,3.73" style="fill:#4597C6"></path><path d="M318.38,162.54c5.41-4.71,14.22-22.58,7.9-29.84s-25.23-1-30.64,3.73" style="opacity:0.15"></path><path d="M294.47,144.17c-2-7.26,2.07-10.77,9-7.83s14.12,11.21,16.08,18.47-2.07,10.76-9,7.82S296.43,151.43,294.47,144.17Z" style="fill:#4597C6"></path><path d="M294.47,144.17c-2-7.26,2.07-10.77,9-7.83s14.12,11.21,16.08,18.47-2.07,10.76-9,7.82S296.43,151.43,294.47,144.17Z" style="opacity:0.5"></path><path d="M317,150a3.76,3.76,0,0,0,.35-.34,34.3,34.3,0,0,0-9.26-10.58l-.36.28A7.06,7.06,0,0,0,317,150Z" style="fill:#4597C6"></path><path d="M317,150a3.76,3.76,0,0,0,.35-.34,34.3,34.3,0,0,0-9.26-10.58l-.36.28A7.06,7.06,0,0,0,317,150Z" style="fill:#fff;opacity:0.7000000000000001"></path></g><g id="freepik--Book--inject-2"><polygon points="202.86 314.57 270.32 275.62 226.47 250.3 159.01 289.25 202.86 314.57" style="opacity:0.1"></polygon><polygon points="202.81 311.44 266.35 274.76 225.75 251.32 162.21 288 202.81 311.44" style="fill:#4597C6"></polygon><polygon points="202.81 311.44 266.35 274.76 225.75 251.32 162.21 288 202.81 311.44" style="opacity:0.15"></polygon><path d="M233.74,292.61v-1.13c0-1.4,2.49-5.4,5.61-7.2l25.24-14.57v5.09Z" style="fill:#f5f5f5"></path><path d="M264.58,269.71l-25.24,14.58c-3.12,1.79-5.63,5.79-5.62,7.19l0,1.13-38.83-22.42h0v-1.13c0-1.4,2.5-5.39,5.61-7.19l25.24-14.57h0Z" style="fill:#fafafa"></path><path d="M264.58,269.71l-25.24,14.58c-3.12,1.79-5.63,5.79-5.62,7.19l0,1.13-38.83-22.42h0v-1.13c0-1.4,2.5-5.39,5.61-7.19l25.25-14.58Z" style="fill:#fafafa"></path><path d="M233.73,291.56l-2.42-1.4-3.19-1.85a6.4,6.4,0,0,1,3.93.57A3.3,3.3,0,0,1,233.73,291.56Z" style="fill:#f0f0f0"></path><path d="M233.73,291.56l-2.42-1.4-3.19-1.85a6.4,6.4,0,0,1,3.93.57A3.3,3.3,0,0,1,233.73,291.56Z" style="fill:#e0e0e0"></path><polygon points="202.82 312.5 202.81 311.44 162.21 288 162.21 289.06 202.82 312.5" style="fill:#4597C6"></polygon><polygon points="202.82 312.5 202.81 311.44 162.21 288 162.21 289.06 202.82 312.5" style="opacity:0.30000000000000004"></polygon><polygon points="202.82 312.5 266.36 275.81 266.35 274.76 202.81 311.44 202.82 312.5" style="fill:#4597C6"></polygon><path d="M233.73,291.56c0-1.4-2.57-2.57-5.69-.78L202.8,305.24v5.23l30.94-17.86S233.74,293,233.73,291.56Z" style="fill:#f5f5f5"></path><polygon points="202.8 310.47 202.8 305.24 163.97 282.82 163.97 288.05 202.8 310.47" style="fill:#ebebeb"></polygon><path d="M228,290.78l-1.13.65L202.8,305.24l-34.3-19.8L164,282.82l25.24-14.46c2.29-1.31,3.57-1.2,4.47-.69h0L233,290.39C231.62,289.59,230,289.76,228,290.78Z" style="fill:#fafafa"></path><polygon points="201.04 301.3 222.53 288.9 223.66 288.25 224.49 288.73 223.35 289.38 201.87 301.78 201.04 301.3" style="fill:#e0e0e0"></polygon><polygon points="199.05 300.15 220.54 287.75 221.67 287.11 222.5 287.58 221.37 288.23 199.88 300.63 199.05 300.15" style="fill:#e0e0e0"></polygon><polygon points="197.07 299.01 218.56 286.61 219.69 285.96 220.52 286.44 219.38 287.09 197.9 299.49 197.07 299.01" style="fill:#e0e0e0"></polygon><polygon points="195.09 297.86 216.57 285.46 217.71 284.82 218.53 285.29 217.4 285.94 195.91 298.34 195.09 297.86" style="fill:#e0e0e0"></polygon><polygon points="193.1 296.72 214.59 284.32 215.72 283.67 216.55 284.15 215.42 284.8 193.93 297.19 193.1 296.72" style="fill:#e0e0e0"></polygon><polygon points="191.12 295.57 212.6 283.17 213.74 282.52 214.56 283 213.43 283.65 191.94 296.05 191.12 295.57" style="fill:#e0e0e0"></polygon><polygon points="189.13 294.43 210.62 282.03 211.75 281.38 212.58 281.86 211.45 282.5 189.96 294.9 189.13 294.43" style="fill:#e0e0e0"></polygon><polygon points="187.15 293.28 208.64 280.88 209.77 280.23 210.59 280.71 209.46 281.36 187.97 293.76 187.15 293.28" style="fill:#e0e0e0"></polygon><polygon points="185.16 292.13 206.65 279.74 207.78 279.09 208.61 279.57 207.48 280.21 185.99 292.61 185.16 292.13" style="fill:#e0e0e0"></polygon><polygon points="183.18 290.99 204.67 278.59 205.8 277.94 206.63 278.42 205.5 279.07 184.01 291.47 183.18 290.99" style="fill:#e0e0e0"></polygon><polygon points="181.19 289.84 202.68 277.44 203.81 276.8 204.64 277.27 203.51 277.92 182.02 290.32 181.19 289.84" style="fill:#e0e0e0"></polygon><polygon points="179.21 288.7 200.7 276.3 201.83 275.65 202.66 276.13 201.53 276.77 180.04 289.18 179.21 288.7" style="fill:#e0e0e0"></polygon><polygon points="177.22 287.55 198.71 275.15 199.84 274.51 200.67 274.98 199.54 275.63 178.05 288.03 177.22 287.55" style="fill:#e0e0e0"></polygon><polygon points="175.24 286.4 196.73 274.01 197.86 273.36 198.69 273.84 197.56 274.48 176.07 286.88 175.24 286.4" style="fill:#e0e0e0"></polygon><polygon points="173.26 285.26 194.75 272.86 195.88 272.21 196.7 272.69 195.57 273.34 174.08 285.74 173.26 285.26" style="fill:#e0e0e0"></polygon><polygon points="171.27 284.11 192.76 271.71 193.89 271.07 194.72 271.55 193.59 272.19 172.1 284.59 171.27 284.11" style="fill:#e0e0e0"></polygon><polygon points="169.29 282.97 190.78 270.57 191.91 269.92 192.74 270.4 191.6 271.05 170.12 283.45 169.29 282.97" style="fill:#e0e0e0"></polygon><path d="M228.28,289.43c-.47,0-1.46.36-2,.48-2.29.52-6.34,2.37-10.22,4.31-5.18,2.59-10.06,5.36-10.06,5.36l-35.52-20.49,18.73-10.73a8.62,8.62,0,0,1,2.31-1,5,5,0,0,1,1.62.56l.25-.43a1.55,1.55,0,0,1,.29.14L233,290.39A6.37,6.37,0,0,0,228.28,289.43Z" style="opacity:0.1"></path><polygon points="202.78 306.38 206.63 304.43 202.8 306.76 198.96 304.54 202.78 306.38" style="fill:#e6e6e6"></polygon><polygon points="202.81 309 209.87 304.92 202.81 308.72 194.87 304.41 202.81 309" style="fill:#e6e6e6"></polygon><polygon points="163.97 283.98 169.91 287.56 163.97 284.52 163.97 283.98" style="fill:#e6e6e6"></polygon><polygon points="163.98 286.02 172.8 291.41 163.97 286.5 163.98 286.02" style="fill:#e6e6e6"></polygon><path d="M228.12,288.31c-.46.06-1,.14-1.51.26-2.3.52-6.34,2.37-10.22,4.31-5.18,2.59-10.06,5.36-10.06,5.36l-38.85-22.41s14.78-8.51,20.58-9.63c2.72-.52,4.39-.16,5.41.42h0l38.58,22.27A6.4,6.4,0,0,0,228.12,288.31Z" style="fill:#f5f5f5"></path><path d="M227.64,286.34a6.26,6.26,0,0,0-3.93-.57,12,12,0,0,0-1.51.26,36.45,36.45,0,0,0-6.34,2.43c-1.27.59-2.58,1.22-3.88,1.87-3.12,1.56-6.12,3.19-8,4.23l.89.51c1.9-1,4.91-2.67,8-4.23,1.3-.65,2.62-1.29,3.88-1.87a36.45,36.45,0,0,1,6.34-2.43,11.82,11.82,0,0,1,1.52-.26,6.32,6.32,0,0,1,3.92.56Z" style="fill:#e0e0e0"></path><path d="M225.65,285.19a6.24,6.24,0,0,0-3.92-.57,13.85,13.85,0,0,0-1.52.26,37.29,37.29,0,0,0-6.34,2.43c-1.27.59-2.58,1.23-3.88,1.87-3.11,1.57-6.12,3.19-8,4.23l.88.51c1.9-1,4.91-2.66,8-4.23,1.29-.65,2.61-1.28,3.87-1.87a37.61,37.61,0,0,1,6.34-2.43,14.26,14.26,0,0,1,1.52-.26,6.23,6.23,0,0,1,3.92.57Z" style="fill:#e0e0e0"></path><path d="M223.66,284a6.37,6.37,0,0,0-3.92-.57,14.26,14.26,0,0,0-1.52.26,37,37,0,0,0-6.34,2.44c-1.26.58-2.58,1.22-3.87,1.87-3.12,1.56-6.13,3.18-8,4.23l.88.51c1.9-1,4.91-2.67,8-4.23,1.29-.65,2.61-1.29,3.87-1.87a36.68,36.68,0,0,1,6.35-2.44,13.69,13.69,0,0,1,1.51-.26,6.37,6.37,0,0,1,3.92.57Z" style="fill:#e0e0e0"></path><path d="M221.67,282.89a6.37,6.37,0,0,0-3.92-.57c-.47.06-1,.14-1.51.26a37.53,37.53,0,0,0-6.35,2.44c-1.26.58-2.58,1.22-3.87,1.87-3.12,1.56-6.13,3.18-8,4.23l.88.51c1.9-1.05,4.91-2.67,8-4.23,1.3-.65,2.61-1.29,3.87-1.87a37.85,37.85,0,0,1,6.35-2.44c.54-.12,1-.2,1.51-.26a6.35,6.35,0,0,1,3.92.57Z" style="fill:#e0e0e0"></path><path d="M219.68,281.74a6.29,6.29,0,0,0-3.92-.56,12,12,0,0,0-1.51.26,36.81,36.81,0,0,0-6.35,2.43c-1.26.58-2.57,1.22-3.87,1.87-3.12,1.56-6.13,3.19-8,4.23l.89.51c1.9-1,4.9-2.67,8-4.23,1.3-.65,2.61-1.29,3.88-1.87a36.45,36.45,0,0,1,6.34-2.43,12,12,0,0,1,1.51-.26,6.34,6.34,0,0,1,3.93.56Z" style="fill:#e0e0e0"></path><path d="M217.7,280.6a6.26,6.26,0,0,0-3.93-.57,12,12,0,0,0-1.51.26,37.29,37.29,0,0,0-6.34,2.43c-1.27.59-2.58,1.22-3.88,1.87-3.12,1.57-6.12,3.19-8,4.23l.88.51c1.9-1,4.91-2.67,8-4.23,1.3-.65,2.62-1.28,3.88-1.87a37.29,37.29,0,0,1,6.34-2.43,11.82,11.82,0,0,1,1.52-.26,6.23,6.23,0,0,1,3.92.57Z" style="fill:#e0e0e0"></path><path d="M215.71,279.45a6.38,6.38,0,0,0-3.92-.57,13.85,13.85,0,0,0-1.52.26,36.64,36.64,0,0,0-6.34,2.44c-1.26.58-2.58,1.22-3.88,1.87-3.11,1.56-6.12,3.18-8,4.23l.88.51c1.9-1.05,4.91-2.67,8-4.23,1.29-.65,2.61-1.29,3.87-1.87a37,37,0,0,1,6.34-2.44,14.26,14.26,0,0,1,1.52-.26,6.29,6.29,0,0,1,3.92.57Z" style="fill:#e0e0e0"></path><path d="M213.72,278.3a6.37,6.37,0,0,0-3.92-.57,14.26,14.26,0,0,0-1.52.26,37.81,37.81,0,0,0-6.34,2.44c-1.26.58-2.58,1.22-3.87,1.87-3.12,1.56-6.13,3.18-8,4.23l.88.51c1.9-1.05,4.91-2.67,8-4.23,1.3-.65,2.61-1.29,3.87-1.87a37.85,37.85,0,0,1,6.35-2.44,13.69,13.69,0,0,1,1.51-.26,6.37,6.37,0,0,1,3.92.57Z" style="fill:#e0e0e0"></path><path d="M208.69,277.1a13.93,13.93,0,0,0-1.51.25c-2.3.52-6.34,2.37-10.22,4.31-3.12,1.56-6.12,3.18-8,4.23l-.88-.51c1.9-1,4.91-2.67,8-4.23,3.87-1.94,7.92-3.79,10.22-4.3a11.68,11.68,0,0,1,1.51-.26,6.3,6.3,0,0,1,3.92.56l.88.51A6.29,6.29,0,0,0,208.69,277.1Z" style="fill:#e0e0e0"></path><path d="M206.71,276a11.82,11.82,0,0,0-1.52.26c-2.29.51-6.34,2.36-10.22,4.3-3.12,1.56-6.12,3.19-8,4.23l-.89-.51c1.91-1,4.91-2.67,8-4.23,3.88-1.94,7.92-3.79,10.22-4.3a12,12,0,0,1,1.51-.26,6.21,6.21,0,0,1,3.92.57l.89.51A6.24,6.24,0,0,0,206.71,276Z" style="fill:#e0e0e0"></path><path d="M204.72,274.8a14.26,14.26,0,0,0-1.52.26c-2.29.52-6.34,2.36-10.22,4.31-3.11,1.56-6.12,3.18-8,4.23l-.88-.51c1.9-1,4.9-2.67,8-4.23,3.88-1.95,7.93-3.79,10.22-4.31a14.11,14.11,0,0,1,1.51-.26,6.33,6.33,0,0,1,3.93.57l.88.51A6.29,6.29,0,0,0,204.72,274.8Z" style="fill:#e0e0e0"></path><path d="M202.73,273.65a14.26,14.26,0,0,0-1.52.26c-2.29.52-6.34,2.37-10.21,4.31-3.12,1.56-6.13,3.18-8,4.23l-.88-.51c1.9-1.05,4.91-2.67,8-4.23,3.88-1.94,7.93-3.79,10.22-4.31a14.26,14.26,0,0,1,1.52-.26,6.37,6.37,0,0,1,3.92.57l.88.51A6.37,6.37,0,0,0,202.73,273.65Z" style="fill:#e0e0e0"></path><path d="M200.74,272.5c-.46.06-1,.14-1.51.26-2.3.52-6.35,2.37-10.22,4.31-3.12,1.56-6.13,3.18-8,4.23l-.88-.51c1.9-1.05,4.91-2.67,8-4.23,3.87-1.94,7.92-3.79,10.21-4.31.55-.12,1-.2,1.52-.26a6.37,6.37,0,0,1,3.92.57l.88.51A6.35,6.35,0,0,0,200.74,272.5Z" style="fill:#e0e0e0"></path><path d="M198.75,271.36a12,12,0,0,0-1.51.26c-2.3.51-6.34,2.36-10.22,4.3-3.12,1.56-6.12,3.19-8,4.23l-.88-.51c1.9-1,4.91-2.67,8-4.23,3.87-1.94,7.92-3.79,10.22-4.3a11.68,11.68,0,0,1,1.51-.26,6.21,6.21,0,0,1,3.92.57l.89.51A6.26,6.26,0,0,0,198.75,271.36Z" style="fill:#e0e0e0"></path><path d="M196.77,270.21a13.85,13.85,0,0,0-1.52.26c-2.29.51-6.34,2.36-10.22,4.3-3.11,1.57-6.12,3.19-8,4.23l-.89-.51c1.91-1,4.91-2.66,8-4.22,3.88-1.95,7.92-3.79,10.22-4.31a14.11,14.11,0,0,1,1.51-.26,6.33,6.33,0,0,1,3.93.57l.88.51A6.24,6.24,0,0,0,196.77,270.21Z" style="fill:#e0e0e0"></path><path d="M194.78,269.06a14.26,14.26,0,0,0-1.52.26c-2.29.52-6.34,2.37-10.21,4.31-3.12,1.56-6.13,3.18-8,4.23l-.88-.51c1.9-1.05,4.91-2.67,8-4.23,3.88-1.94,7.93-3.79,10.22-4.31a13.85,13.85,0,0,1,1.52-.26,6.38,6.38,0,0,1,3.92.57l.88.51A6.37,6.37,0,0,0,194.78,269.06Z" style="fill:#e0e0e0"></path><path d="M192.79,267.91c-.47.06-1,.14-1.51.26-2.3.52-6.35,2.37-10.22,4.31-3.12,1.56-6.13,3.18-8,4.23l-.88-.51c1.9-1.05,4.91-2.67,8-4.23,3.87-1.94,7.92-3.79,10.21-4.31.55-.12,1.05-.2,1.52-.26a6.37,6.37,0,0,1,3.92.57l.88.51A6.37,6.37,0,0,0,192.79,267.91Z" style="fill:#e0e0e0"></path><path d="M235.7,282.19a12.74,12.74,0,0,0-3.14,2.69l-.81-.47a12.61,12.61,0,0,1,3.15-2.69l22.62-13,.81.47Z" style="fill:#e0e0e0"></path><path d="M235.7,282.19a12.74,12.74,0,0,0-3.14,2.69l-.81-.47a12.61,12.61,0,0,1,3.15-2.69l22.62-13,.81.47Z" style="fill:#e0e0e0"></path><path d="M231.12,284.52l.32-.37a13.24,13.24,0,0,1,3.25-2.78l22.83-13.15,1.62.94-23.23,13.38a12.15,12.15,0,0,0-3,2.6l-.22.26Z" style="fill:#4597C6;opacity:0.30000000000000004"></path><path d="M233.72,281a12.39,12.39,0,0,0-3.14,2.69l-.81-.46a12.39,12.39,0,0,1,3.14-2.69l22.62-13,.81.47Z" style="fill:#e0e0e0"></path><path d="M231.73,279.9a12.73,12.73,0,0,0-3.14,2.68l-.81-.46a12.61,12.61,0,0,1,3.15-2.69l22.62-13,.81.46Z" style="fill:#e0e0e0"></path><path d="M229.75,278.75a12.61,12.61,0,0,0-3.15,2.69l-.8-.47a12.59,12.59,0,0,1,3.14-2.69l22.62-13,.81.47Z" style="fill:#e0e0e0"></path><path d="M227.76,277.6a12.59,12.59,0,0,0-3.14,2.69l-.81-.46a12.74,12.74,0,0,1,3.14-2.69l22.63-13,.81.47Z" style="fill:#e0e0e0"></path><path d="M225.78,276.46a12.61,12.61,0,0,0-3.15,2.69l-.8-.47A12.39,12.39,0,0,1,225,276l22.62-13,.81.46Z" style="fill:#e0e0e0"></path><path d="M223.79,275.31a12.39,12.39,0,0,0-3.14,2.69l-.81-.47a13.18,13.18,0,0,1,3.14-2.69l22.63-13,.8.47Z" style="fill:#e0e0e0"></path><path d="M221.81,274.16a13,13,0,0,0-3.15,2.69l-.81-.46A12.61,12.61,0,0,1,221,273.7l22.62-13,.81.46Z" style="fill:#e0e0e0"></path><path d="M219.82,273a12.39,12.39,0,0,0-3.14,2.69l-.81-.47a12.39,12.39,0,0,1,3.14-2.69l22.63-13,.8.47Z" style="fill:#e0e0e0"></path><path d="M217.83,271.87a12.74,12.74,0,0,0-3.14,2.69l-.81-.47A13,13,0,0,1,217,271.4l22.62-13,.81.47Z" style="fill:#e0e0e0"></path><path d="M215.85,270.72a12.8,12.8,0,0,0-3.14,2.69l-.81-.46a12.39,12.39,0,0,1,3.14-2.69l22.62-13,.81.46Z" style="fill:#e0e0e0"></path><path d="M213.86,269.58a12.74,12.74,0,0,0-3.14,2.69l-.81-.47a12.61,12.61,0,0,1,3.15-2.69l22.62-13,.81.47Z" style="fill:#e0e0e0"></path><path d="M211.88,268.43a12.61,12.61,0,0,0-3.15,2.69l-.8-.46a12.39,12.39,0,0,1,3.14-2.69l22.62-13,.81.47Z" style="fill:#e0e0e0"></path><path d="M209.89,267.29a12.39,12.39,0,0,0-3.14,2.69l-.81-.47a12.74,12.74,0,0,1,3.14-2.69l22.63-13,.81.46Z" style="fill:#e0e0e0"></path><path d="M207.91,266.14a12.61,12.61,0,0,0-3.15,2.69l-.8-.47a12.8,12.8,0,0,1,3.14-2.69l22.62-13,.81.47Z" style="fill:#e0e0e0"></path><path d="M205.92,265a12.8,12.8,0,0,0-3.14,2.69l-.81-.46a12.74,12.74,0,0,1,3.14-2.69l22.63-13,.8.47Z" style="fill:#e0e0e0"></path><path d="M203.94,263.85a12.61,12.61,0,0,0-3.15,2.69l-.81-.47a12.61,12.61,0,0,1,3.15-2.69l22.62-13,.81.46Z" style="fill:#e0e0e0"></path><path d="M229.16,283.35l.32-.38a12.8,12.8,0,0,1,3.25-2.77l22.82-13.15,1.63.93-23.24,13.39a12.15,12.15,0,0,0-3,2.6l-.22.26Z" style="fill:#4597C6;opacity:0.30000000000000004"></path><path d="M227.19,282.17l.32-.37a12.8,12.8,0,0,1,3.25-2.77l22.83-13.15,1.62.93L232,280.2a12.15,12.15,0,0,0-3,2.6l-.22.26Z" style="fill:#4597C6;opacity:0.30000000000000004"></path><path d="M225.22,281l.33-.37a13.06,13.06,0,0,1,3.25-2.78l22.82-13.15,1.63.94L230,279a12.15,12.15,0,0,0-3,2.6l-.22.25Z" style="fill:#4597C6;opacity:0.30000000000000004"></path><path d="M213.33,274.09l.32-.37a13.06,13.06,0,0,1,3.25-2.78l22.83-13.15,1.62.94-23.23,13.38a12.42,12.42,0,0,0-3,2.61l-.22.25Z" style="fill:#4597C6;opacity:0.30000000000000004"></path><path d="M211.36,272.92l.33-.37a12.89,12.89,0,0,1,3.25-2.78l22.82-13.15,1.63.94-23.24,13.38a12.15,12.15,0,0,0-3,2.6l-.22.26Z" style="fill:#4597C6;opacity:0.30000000000000004"></path><path d="M209.4,271.75l.32-.38A12.8,12.8,0,0,1,213,268.6l22.83-13.15,1.62.93-23.24,13.39a12,12,0,0,0-3,2.6l-.23.26Z" style="fill:#4597C6;opacity:0.30000000000000004"></path><polygon points="259.28 274.16 264.57 271.37 264.58 270.94 259.28 274.16" style="fill:#e6e6e6"></polygon><polygon points="264.58 272.93 255.75 277.86 264.58 272.61 264.58 272.93" style="fill:#e6e6e6"></polygon><path d="M173.54,272.51c4.76-2.52,11.15-5.66,14.52-6.31,2.72-.52,4.39-.16,5.41.42h0l38.58,22.27a6.4,6.4,0,0,0-3.93-.57S209,276.67,196.7,272.69A39.77,39.77,0,0,0,173.54,272.51Z" style="opacity:0.02"></path></g><g id="freepik--Pen--inject-2"><path d="M297.33,222.69l-36.55,21.12-6.24,1.27a.19.19,0,0,1-.21-.28l2-3.59,36.55-21.12C294.08,219.38,298.3,222.13,297.33,222.69Z" style="opacity:0.2"></path><g id="freepik--pen--inject-2"><path d="M293,217.5a3.68,3.68,0,0,0,1.68,2.9,1.34,1.34,0,0,0,1,.21l-.18.14.4-.23,0,0,.06,0,.08-.06,0-.05h0a.1.1,0,0,1,0,0,1.19,1.19,0,0,0,.13-.25l0-.08s0,0,0,0,0-.05,0-.08a1.73,1.73,0,0,0,.05-.42,3.73,3.73,0,0,0-1.67-2.9,1.59,1.59,0,0,0-.76-.22h-.1l-.1,0h-.06l0,0-.07,0h0l-.06,0-.35.2a.64.64,0,0,1,.18-.06A1.3,1.3,0,0,0,293,217.5Zm2.76,3.07,0,0Z" style="fill:#4597C6"></path><path d="M258.22,236.78l2.36,4.1.4-.23,34.48-19.9.18-.14a1.39,1.39,0,0,0,.31-1,3.71,3.71,0,0,0-1.68-2.9,1.57,1.57,0,0,0-.75-.23.76.76,0,0,0-.21,0,.64.64,0,0,0-.18.06l0,0h0Z" style="fill:#f0f0f0"></path><path d="M259.4,236.9c-.92-.54-1.67-.11-1.67,1a3.7,3.7,0,0,0,1.67,2.9c.93.54,1.68.1,1.68-1A3.68,3.68,0,0,0,259.4,236.9Z" style="fill:#4597C6"></path><path d="M255.8,239.38l0,0L258,237h0l0,0,0,0,0,0h0a1.07,1.07,0,0,1,1.34,0,3.68,3.68,0,0,1,1.68,2.9,1.1,1.1,0,0,1-.65,1.15h0l-.12,0h0l-3.1.67a.76.76,0,0,1-.54-.11,2.13,2.13,0,0,1-1-1.66A.84.84,0,0,1,255.8,239.38Z" style="fill:#e0e0e0"></path><path d="M283.17,224.13h0l.06,0a.41.41,0,0,1,.39.05,1.32,1.32,0,0,1,.6,1,.46.46,0,0,1-.14.36h0l-.07.05-25.45,14.69-1.67-1Z" style="fill:#455a64"></path><path d="M260.93,238.91l-2.37,1.37-1.67-1,3.2-1.85A4.14,4.14,0,0,1,260.93,238.91Z" style="fill:#37474f"></path><path d="M255,240.5h0l1.93-2.13.06-.06a.75.75,0,0,1,.95,0,2.62,2.62,0,0,1,1.19,2,.79.79,0,0,1-.45.82h0l-.08,0-2.84.62h0a.42.42,0,0,1-.31-.07,1.18,1.18,0,0,1-.54-.93A.42.42,0,0,1,255,240.5Z" style="fill:#4597C6"></path><path d="M255,240.5h0l1.93-2.13.06-.06a.75.75,0,0,1,.95,0,2.62,2.62,0,0,1,1.19,2,.79.79,0,0,1-.45.82h0l-.08,0-2.84.62h0a.42.42,0,0,1-.31-.07,1.18,1.18,0,0,1-.54-.93A.42.42,0,0,1,255,240.5Z" style="opacity:0.1"></path><path d="M254.85,240.81a1.18,1.18,0,0,0,.54.93.4.4,0,0,0,.3.07h0l1.43-.32c.23,0,.38-.26.38-.6a1.91,1.91,0,0,0-.86-1.49.55.55,0,0,0-.69,0l0,0-1,1.06h0A.42.42,0,0,0,254.85,240.81Z" style="fill:#4597C6"></path><path d="M255.39,240.5c-.3-.17-.54,0-.54.31a1.18,1.18,0,0,0,.54.93c.3.17.54,0,.54-.31A1.18,1.18,0,0,0,255.39,240.5Z" style="opacity:0.1"></path><path d="M289.51,220.47a.43.43,0,0,1,.42,0,1.28,1.28,0,0,1,.59,1,.42.42,0,0,1-.17.39h0l-6.26,3.61a.46.46,0,0,0,.14-.36,1.32,1.32,0,0,0-.6-1,.41.41,0,0,0-.39-.05Z" style="fill:#fafafa"></path><path d="M289.34,220.86a1.3,1.3,0,0,0,.59,1,.39.39,0,0,0,.42,0,.4.4,0,0,0,.17-.38,1.28,1.28,0,0,0-.59-1,.36.36,0,0,0-.59.35Z" style="fill:#f5f5f5"></path><path d="M290.66,218.32h0l0,0,2.47-1.42.06,0h0a1.08,1.08,0,0,1,1,.13,3.33,3.33,0,0,1,1.51,2.61,1,1,0,0,1-.45,1h0l-2.5,1.45h0a1.06,1.06,0,0,1-1-.11,3.34,3.34,0,0,1-1.51-2.61A1.09,1.09,0,0,1,290.66,218.32Z" style="fill:#4597C6"></path><path d="M290.66,218.32h0l0,0,2.47-1.42.06,0h0a1.08,1.08,0,0,1,1,.13,3.33,3.33,0,0,1,1.51,2.61,1,1,0,0,1-.45,1h0l-2.5,1.45h0a1.06,1.06,0,0,1-1-.11,3.34,3.34,0,0,1-1.51-2.61A1.09,1.09,0,0,1,290.66,218.32Z" style="opacity:0.05"></path><path d="M291.76,218.41c-.83-.48-1.51-.09-1.51.87a3.34,3.34,0,0,0,1.51,2.61c.83.48,1.51.09,1.51-.87A3.34,3.34,0,0,0,291.76,218.41Z" style="opacity:0.1"></path><path d="M254.17,241.4h0l1-.62h0a.19.19,0,0,1,.2,0,.62.62,0,0,1,.28.48.2.2,0,0,1-.09.18h0l-1,.61h0a.41.41,0,0,1-.19.05.39.39,0,0,1-.21-.72Z" style="fill:#455a64"></path><path d="M254.11,241.44h0l0,0h0a.21.21,0,0,1,.18,0,.61.61,0,0,1,.27.48.19.19,0,0,1-.08.17h0a.25.25,0,0,1-.12,0,.39.39,0,0,1-.27-.68Z" style="fill:#263238"></path></g></g><g id="freepik--Pencil--inject-2"><path id="freepik--shadow--inject-2" d="M267.92,248.79c.45,1.23,1.76,2,3.95,2.29l39.05-22.75,4.06-4.11a.32.32,0,0,0-.33-.52l-7.46,2.48Z" style="opacity:0.2"></path><path d="M307.48,223.4l6.64-1.3a.2.2,0,0,1,.19.33l-4.5,5.11Z" style="fill:#ffa8a7"></path><path d="M314.31,222.43a.2.2,0,0,0-.19-.33l-1.3.25h0a1.14,1.14,0,0,1,.54,1.06v.12Z" style="fill:#263238"></path><path d="M277.16,246.23l.55-.31.65-.37,31.45-18a3.06,3.06,0,0,0-.19-2.2,3.09,3.09,0,0,0-2.14-1.94l-31.43,18-1.25.72C275.63,241.7,278,245.8,277.16,246.23Z" style="fill:#455a64"></path><path d="M279.24,245.05l1.21-.7c.36-.19.15-1.07-.27-2-.55-1.21-1.64-2.38-2.12-2.12l-.89.51-.32.19c.48-.25,1.57.92,2.12,2.13.4.87.61,1.72.3,1.95h0Z" style="fill:#ebebeb"></path><path d="M279.54,244.87c.83-.44-1.55-4.54-2.39-4.1l-1.21.69c.83-.44,3.21,3.67,2.38,4.11Z" style="fill:#4597C6"></path><path d="M277.16,246.23l1.2-.68c.82-.43-1.44-4.41-2.31-4.15l-.05,0-1.2.7C275.63,241.7,278,245.8,277.16,246.23Z" style="fill:#ebebeb"></path><path d="M314.34,222.21l-.22-.11-4.82,2.63-32.8,18.79c0-.07-.08-.08-.11,0,.7,1.11,1.24,2.5.77,2.74l.55-.31.65-.37,31.45-18h0l4.5-5.11A.18.18,0,0,0,314.34,222.21Z" style="opacity:0.15"></path><path d="M272.07,249.15l5.09-2.92c.36-.18.16-1-.25-2-.55-1.21-1.64-2.39-2.11-2.15h0l-5.11,2.93c-1,.58-.08,2.78,1.05,3.77A1.23,1.23,0,0,0,272.07,249.15Z" style="fill:#f28f8f"></path><path d="M272.38,247.57a3.71,3.71,0,0,0-2.08-2.52.84.84,0,0,0-.76.1c-.77.72.12,2.74,1.19,3.67a1.22,1.22,0,0,0,1.32.33C272.43,248.93,272.57,248.34,272.38,247.57Z" style="opacity:0.1"></path></g><g id="freepik--Pot--inject-2"><g style="opacity:0.1"><path d="M406.4,244.69c5.45,3.14,5.45,8.25,0,11.39s-14.28,3.15-19.74,0-5.45-8.25,0-11.39S401,241.54,406.4,244.69Z"></path></g><path d="M387.85,251.09c-4.74-4.85-7.53-16.94-2.9-20.78h23.56c4.62,3.84,1.84,15.93-2.9,20.77l-.13.14-.17.16a5.52,5.52,0,0,1-.43.38l-.11.09-.36.27c-.2.14-.41.27-.61.39a15.65,15.65,0,0,1-14.14,0h0a5.93,5.93,0,0,1-.62-.4,2.85,2.85,0,0,1-.33-.25l-.15-.11c-.14-.12-.28-.24-.41-.37l-.19-.18A1.14,1.14,0,0,0,387.85,251.09Z" style="fill:#ebebeb"></path><path d="M406.46,228.76c5.38,3.1,5.38,8.14,0,11.24s-14.09,3.1-19.47,0-5.37-8.14,0-11.24S401.08,225.66,406.46,228.76Z" style="fill:#fafafa"></path><path d="M402.65,231c3.27,1.89,3.27,4.95,0,6.84a13.07,13.07,0,0,1-11.84,0c-3.27-1.89-3.27-5,0-6.84A13.07,13.07,0,0,1,402.65,231Z" style="fill:#f5f5f5"></path><path d="M390.81,234.21a13.07,13.07,0,0,1,11.84,0,5.47,5.47,0,0,1,2,1.79,5.49,5.49,0,0,1-2,1.8,13.07,13.07,0,0,1-11.84,0,5.4,5.4,0,0,1-2-1.8A5.39,5.39,0,0,1,390.81,234.21Z" style="fill:#37474f"></path><path d="M401.93,236a26.82,26.82,0,0,0,4.28-5.69c2-3.5,2.34-8.19,1.32-8.76s-5.18,4.09-5.18,4.09a25.22,25.22,0,0,0,.43-6c-.17-3.11-.93-5.95-1.82-6.52s-2.89,3.36-3.75,6.21-1.36,5.19-1.36,5.19a44.31,44.31,0,0,0-1.54-6.55c-1-3-2-3.63-2.71-3.34s-1.21,1.67-1.42,5.61a39.49,39.49,0,0,0,.17,5.64s-1.47-1.61-3.1-3.18-2.55-2-3.06-1.63-.65,3,2.12,8a27.8,27.8,0,0,0,5.23,6.88S395.37,238.48,401.93,236Z" style="fill:#4597C6"></path><g style="opacity:0.15"><path d="M401.93,236a26.82,26.82,0,0,0,4.28-5.69c2-3.5,2.34-8.19,1.32-8.76s-5.18,4.09-5.18,4.09a25.22,25.22,0,0,0,.43-6c-.17-3.11-.93-5.95-1.82-6.52s-2.89,3.36-3.75,6.21-1.36,5.19-1.36,5.19a44.31,44.31,0,0,0-1.54-6.55c-1-3-2-3.63-2.71-3.34s-1.21,1.67-1.42,5.61a39.49,39.49,0,0,0,.17,5.64s-1.47-1.61-3.1-3.18-2.55-2-3.06-1.63-.65,3,2.12,8a27.8,27.8,0,0,0,5.23,6.88S395.37,238.48,401.93,236Z"></path></g></g></g></svg>